<?xml version="1.0" encoding="UTF-8" standalone="no"?>
<!DOCTYPE svg PUBLIC "-//W3C//DTD SVG 1.1//EN"
 "http://www.w3.org/Graphics/SVG/1.1/DTD/svg11.dtd">
<!-- Generated by graphviz version 2.40.1 (20161225.0304)
 -->
<!-- Title: twoDegreesRelationshipsDiagram Pages: 1 -->
<svg width="522pt" height="333pt"
 viewBox="0.00 0.00 522.00 332.70" xmlns="http://www.w3.org/2000/svg" xmlns:xlink="http://www.w3.org/1999/xlink">
<g id="graph0" class="graph" transform="scale(1 1) rotate(0) translate(4 328.7)">
<title>twoDegreesRelationshipsDiagram</title>
<polygon fill="#ffffff" stroke="transparent" points="-4,4 -4,-328.7 518,-328.7 518,4 -4,4"/>
<text text-anchor="middle" x="72.4936" y="-7.3" font-family="Helvetica,sans-Serif" font-size="11.00" fill="#000000">Generated by SchemaSpy</text>
<!-- article -->
<g id="node1" class="node">
<title>article</title>
<g id="a_node1"><a xlink:href="../../tables/article.html" xlink:title="article" target="_top">
<polygon fill="#ffffff" stroke="transparent" points="145,-38.2 145,-238.2 351,-238.2 351,-38.2 145,-38.2"/>
<polygon fill="#f5f5f5" stroke="transparent" points="147,-213.2 147,-236.2 349,-236.2 349,-213.2 147,-213.2"/>
<polygon fill="none" stroke="#000000" points="147,-213.2 147,-236.2 349,-236.2 349,-213.2 147,-213.2"/>
<text text-anchor="start" x="152" y="-222.3" font-family="Helvetica,sans-Serif" font-weight="bold" font-size="11.00" fill="#000000">article</text>
<text text-anchor="start" x="314.0437" y="-221.3" font-family="Helvetica,sans-Serif" font-size="11.00" fill="#000000">[table]</text>
<polygon fill="none" stroke="#000000" points="147,-191.2 147,-213.2 238,-213.2 238,-191.2 147,-191.2"/>
<image xlink:href="../../images/primaryKeys.png" width="11px" height="12px" preserveAspectRatio="xMinYMin meet" x="152" y="-208.2"/>
<text text-anchor="start" x="167" y="-198.3" font-family="Helvetica,sans-Serif" font-size="11.00" fill="#000000">id</text>
<polygon fill="none" stroke="#000000" points="238,-191.2 238,-213.2 349,-213.2 349,-191.2 238,-191.2"/>
<text text-anchor="start" x="241" y="-198.9" font-family="Helvetica,sans-Serif" font-size="11.00" fill="#000000">int[10]</text>
<polygon fill="none" stroke="#000000" points="147,-169.2 147,-191.2 238,-191.2 238,-169.2 147,-169.2"/>
<text text-anchor="start" x="167" y="-176.3" font-family="Helvetica,sans-Serif" font-size="11.00" fill="#000000">titre</text>
<polygon fill="none" stroke="#000000" points="238,-169.2 238,-191.2 349,-191.2 349,-169.2 238,-169.2"/>
<text text-anchor="start" x="241" y="-176.9" font-family="Helvetica,sans-Serif" font-size="11.00" fill="#000000">varchar[200]</text>
<polygon fill="none" stroke="#000000" points="147,-147.2 147,-169.2 238,-169.2 238,-147.2 147,-147.2"/>
<text text-anchor="start" x="167" y="-154.3" font-family="Helvetica,sans-Serif" font-size="11.00" fill="#000000">contenu</text>
<polygon fill="none" stroke="#000000" points="238,-147.2 238,-169.2 349,-169.2 349,-147.2 238,-147.2"/>
<text text-anchor="start" x="240.6115" y="-154.9" font-family="Helvetica,sans-Serif" font-size="11.00" fill="#000000">longtext[2147483647]</text>
<polygon fill="none" stroke="#000000" points="147,-125.2 147,-147.2 238,-147.2 238,-125.2 147,-125.2"/>
<text text-anchor="start" x="167" y="-132.3" font-family="Helvetica,sans-Serif" font-size="11.00" fill="#000000">created_at</text>
<polygon fill="none" stroke="#000000" points="238,-125.2 238,-147.2 349,-147.2 349,-125.2 238,-125.2"/>
<text text-anchor="start" x="241" y="-132.9" font-family="Helvetica,sans-Serif" font-size="11.00" fill="#000000">datetime[19]</text>
<polygon fill="none" stroke="#000000" points="147,-103.2 147,-125.2 238,-125.2 238,-103.2 147,-103.2"/>
<text text-anchor="start" x="167" y="-110.3" font-family="Helvetica,sans-Serif" font-size="11.00" fill="#000000">slug</text>
<polygon fill="none" stroke="#000000" points="238,-103.2 238,-125.2 349,-125.2 349,-103.2 238,-103.2"/>
<text text-anchor="start" x="241" y="-110.9" font-family="Helvetica,sans-Serif" font-size="11.00" fill="#000000">varchar[255]</text>
<polygon fill="#ffffff" stroke="transparent" points="147,-81.2 147,-103.2 238,-103.2 238,-81.2 147,-81.2"/>
<polygon fill="none" stroke="#000000" points="147,-81.2 147,-103.2 238,-103.2 238,-81.2 147,-81.2"/>
<image xlink:href="../../images/foreignKeys.png" width="11px" height="12px" preserveAspectRatio="xMinYMin meet" x="152" y="-98.2"/>
<text text-anchor="start" x="167" y="-88.3" font-family="Helvetica,sans-Serif" font-size="11.00" fill="#000000">categorie_id</text>
<polygon fill="none" stroke="#000000" points="238,-81.2 238,-103.2 349,-103.2 349,-81.2 238,-81.2"/>
<text text-anchor="start" x="241" y="-88.9" font-family="Helvetica,sans-Serif" font-size="11.00" fill="#000000">int[10]</text>
<polygon fill="none" stroke="#000000" points="147,-59.2 147,-81.2 238,-81.2 238,-59.2 147,-59.2"/>
<text text-anchor="start" x="167" y="-66.3" font-family="Helvetica,sans-Serif" font-size="11.00" fill="#000000">est_publie</text>
<polygon fill="none" stroke="#000000" points="238,-59.2 238,-81.2 349,-81.2 349,-59.2 238,-59.2"/>
<text text-anchor="start" x="241" y="-66.9" font-family="Helvetica,sans-Serif" font-size="11.00" fill="#000000">bit[1]</text>
<polygon fill="#ffffff" stroke="transparent" points="147,-40.2 147,-59.2 178,-59.2 178,-40.2 147,-40.2"/>
<polygon fill="none" stroke="#000000" points="147,-40.2 147,-59.2 178,-59.2 178,-40.2 147,-40.2"/>
<text text-anchor="start" x="150" y="-46.3" font-family="Helvetica,sans-Serif" font-size="11.00" fill="#000000">&lt; 1</text>
<polygon fill="#ffffff" stroke="transparent" points="178,-40.2 178,-59.2 238,-59.2 238,-40.2 178,-40.2"/>
<polygon fill="none" stroke="#000000" points="178,-40.2 178,-59.2 238,-59.2 238,-40.2 178,-40.2"/>
<text text-anchor="start" x="190.3807" y="-46.3" font-family="Helvetica,sans-Serif" font-size="11.00" fill="#000000">100 rows</text>
<polygon fill="#ffffff" stroke="transparent" points="238,-40.2 238,-59.2 349,-59.2 349,-40.2 238,-40.2"/>
<polygon fill="none" stroke="#000000" points="238,-40.2 238,-59.2 349,-59.2 349,-40.2 238,-40.2"/>
<text text-anchor="start" x="330.4053" y="-46.3" font-family="Helvetica,sans-Serif" font-size="11.00" fill="#000000">1 &gt;</text>
<polygon fill="none" stroke="#000000" stroke-width="2" points="146,-39.2 146,-237.2 350,-237.2 350,-39.2 146,-39.2"/>
</a>
</g>
</g>
<!-- categorie -->
<g id="node2" class="node">
<title>categorie</title>
<g id="a_node2"><a xlink:href="../../tables/categorie.html" xlink:title="categorie" target="_top">
<polygon fill="#ffffff" stroke="transparent" points="8,-43.7 8,-126.7 96,-126.7 96,-43.7 8,-43.7"/>
<polygon fill="#f5f5f5" stroke="transparent" points="8,-103.2 8,-126.2 96,-126.2 96,-103.2 8,-103.2"/>
<polygon fill="none" stroke="#000000" points="8,-103.2 8,-126.2 96,-126.2 96,-103.2 8,-103.2"/>
<text text-anchor="start" x="12.8829" y="-112.3" font-family="Helvetica,sans-Serif" font-weight="bold" font-size="11.00" fill="#000000">categorie</text>
<text text-anchor="start" x="61.5219" y="-111.3" font-family="Helvetica,sans-Serif" font-size="11.00" fill="#000000">[table]</text>
<polygon fill="none" stroke="#000000" points="8,-81.2 8,-103.2 96,-103.2 96,-81.2 8,-81.2"/>
<image xlink:href="../../images/primaryKeys.png" width="11px" height="12px" preserveAspectRatio="xMinYMin meet" x="13" y="-98.2"/>
<text text-anchor="start" x="35" y="-88.3" font-family="Helvetica,sans-Serif" font-size="11.00" fill="#000000">id</text>
<polygon fill="none" stroke="#000000" points="8,-62.2 8,-81.2 96,-81.2 96,-62.2 8,-62.2"/>
<text text-anchor="start" x="11" y="-68.3" font-family="Helvetica,sans-Serif" font-size="11.00" fill="#000000">...</text>
<polygon fill="#ffffff" stroke="transparent" points="8,-43.2 8,-62.2 28,-62.2 28,-43.2 8,-43.2"/>
<polygon fill="none" stroke="#000000" points="8,-43.2 8,-62.2 28,-62.2 28,-43.2 8,-43.2"/>
<text text-anchor="start" x="11" y="-49.3" font-family="Helvetica,sans-Serif" font-size="11.00" fill="#000000"> &#160;</text>
<polygon fill="#ffffff" stroke="transparent" points="28,-43.2 28,-62.2 70,-62.2 70,-43.2 28,-43.2"/>
<polygon fill="none" stroke="#000000" points="28,-43.2 28,-62.2 70,-62.2 70,-43.2 28,-43.2"/>
<text text-anchor="start" x="34.6105" y="-49.3" font-family="Helvetica,sans-Serif" font-size="11.00" fill="#000000">9 rows</text>
<polygon fill="#ffffff" stroke="transparent" points="70,-43.2 70,-62.2 96,-62.2 96,-43.2 70,-43.2"/>
<polygon fill="none" stroke="#000000" points="70,-43.2 70,-62.2 96,-62.2 96,-43.2 70,-43.2"/>
<text text-anchor="start" x="77.4053" y="-49.3" font-family="Helvetica,sans-Serif" font-size="11.00" fill="#000000">1 &gt;</text>
</a>
</g>
</g>
<!-- article&#45;&gt;categorie -->
<g id="edge1" class="edge">
<title>article:w&#45;&gt;categorie:e</title>
<path fill="none" stroke="#000000" d="M132.276,-92.2C120.2815,-92.2 112.8229,-92.2 96,-92.2"/>
<polygon fill="#000000" stroke="#000000" points="139,-92.2001 147,-95.8 143,-92.2 147,-92.2 147,-92.2 147,-92.2 143,-92.2 147,-88.6 139,-92.2001 139,-92.2001"/>
<ellipse fill="none" stroke="#000000" cx="135.8" cy="-92.2001" rx="3.2" ry="3.2"/>
</g>
<!-- commentaire -->
<g id="node3" class="node">
<title>commentaire</title>
<g id="a_node3"><a xlink:href="../../tables/commentaire.html" xlink:title="commentaire" target="_top">
<polygon fill="#ffffff" stroke="transparent" points="400,-184.7 400,-311.7 506,-311.7 506,-184.7 400,-184.7"/>
<polygon fill="#f5f5f5" stroke="transparent" points="400,-288.2 400,-311.2 506,-311.2 506,-288.2 400,-288.2"/>
<polygon fill="none" stroke="#000000" points="400,-288.2 400,-311.2 506,-311.2 506,-288.2 400,-288.2"/>
<text text-anchor="start" x="404.721" y="-297.3" font-family="Helvetica,sans-Serif" font-weight="bold" font-size="11.00" fill="#000000">commentaire</text>
<text text-anchor="start" x="471.5219" y="-296.3" font-family="Helvetica,sans-Serif" font-size="11.00" fill="#000000">[table]</text>
<polygon fill="none" stroke="#000000" points="400,-266.2 400,-288.2 506,-288.2 506,-266.2 400,-266.2"/>
<image xlink:href="../../images/primaryKeys.png" width="11px" height="12px" preserveAspectRatio="xMinYMin meet" x="405" y="-283.2"/>
<text text-anchor="start" x="426" y="-273.3" font-family="Helvetica,sans-Serif" font-size="11.00" fill="#000000">id</text>
<polygon fill="#ffffff" stroke="transparent" points="400,-244.2 400,-266.2 506,-266.2 506,-244.2 400,-244.2"/>
<polygon fill="none" stroke="#000000" points="400,-244.2 400,-266.2 506,-266.2 506,-244.2 400,-244.2"/>
<image xlink:href="../../images/foreignKeys.png" width="11px" height="12px" preserveAspectRatio="xMinYMin meet" x="405" y="-261.2"/>
<text text-anchor="start" x="426" y="-251.3" font-family="Helvetica,sans-Serif" font-size="11.00" fill="#000000">auteur_id</text>
<polygon fill="#ffffff" stroke="transparent" points="400,-222.2 400,-244.2 506,-244.2 506,-222.2 400,-222.2"/>
<polygon fill="none" stroke="#000000" points="400,-222.2 400,-244.2 506,-244.2 506,-222.2 400,-222.2"/>
<image xlink:href="../../images/foreignKeys.png" width="11px" height="12px" preserveAspectRatio="xMinYMin meet" x="405" y="-239.2"/>
<text text-anchor="start" x="426" y="-229.3" font-family="Helvetica,sans-Serif" font-size="11.00" fill="#000000">article_id</text>
<polygon fill="none" stroke="#000000" points="400,-203.2 400,-222.2 506,-222.2 506,-203.2 400,-203.2"/>
<text text-anchor="start" x="403" y="-209.3" font-family="Helvetica,sans-Serif" font-size="11.00" fill="#000000">...</text>
<polygon fill="#ffffff" stroke="transparent" points="400,-184.2 400,-203.2 435,-203.2 435,-184.2 400,-184.2"/>
<polygon fill="none" stroke="#000000" points="400,-184.2 400,-203.2 435,-203.2 435,-184.2 400,-184.2"/>
<text text-anchor="start" x="403" y="-190.3" font-family="Helvetica,sans-Serif" font-size="11.00" fill="#000000">&lt; 2</text>
<polygon fill="#ffffff" stroke="transparent" points="435,-184.2 435,-203.2 486,-203.2 486,-184.2 435,-184.2"/>
<polygon fill="none" stroke="#000000" points="435,-184.2 435,-203.2 486,-203.2 486,-184.2 435,-184.2"/>
<text text-anchor="start" x="444.4956" y="-190.3" font-family="Helvetica,sans-Serif" font-size="11.00" fill="#000000">91 rows</text>
<polygon fill="#ffffff" stroke="transparent" points="486,-184.2 486,-203.2 506,-203.2 506,-184.2 486,-184.2"/>
<polygon fill="none" stroke="#000000" points="486,-184.2 486,-203.2 506,-203.2 506,-184.2 486,-184.2"/>
<text text-anchor="start" x="496.8862" y="-190.3" font-family="Helvetica,sans-Serif" font-size="11.00" fill="#000000"> &#160;</text>
</a>
</g>
</g>
<!-- commentaire&#45;&gt;article -->
<g id="edge2" class="edge">
<title>commentaire:w&#45;&gt;article:e</title>
<path fill="none" stroke="#000000" d="M386.0967,-229.3988C373.0044,-221.1209 369.7231,-202.2 349,-202.2"/>
<polygon fill="#000000" stroke="#000000" points="392.2832,-231.0902 399.0506,-236.6726 396.1416,-232.1451 400,-233.2 400,-233.2 400,-233.2 396.1416,-232.1451 400.9494,-229.7274 392.2832,-231.0902 392.2832,-231.0902"/>
<ellipse fill="none" stroke="#000000" cx="389.1965" cy="-230.2462" rx="3.2" ry="3.2"/>
</g>
<!-- auteur -->
<g id="node4" class="node">
<title>auteur</title>
<g id="a_node4"><a xlink:href="../../tables/auteur.html" xlink:title="auteur" target="_top">
<polygon fill="#ffffff" stroke="transparent" points="209.5,-259.7 209.5,-320.7 286.5,-320.7 286.5,-259.7 209.5,-259.7"/>
<polygon fill="#f5f5f5" stroke="transparent" points="210,-297.2 210,-320.2 287,-320.2 287,-297.2 210,-297.2"/>
<polygon fill="none" stroke="#000000" points="210,-297.2 210,-320.2 287,-320.2 287,-297.2 210,-297.2"/>
<text text-anchor="start" x="215" y="-306.3" font-family="Helvetica,sans-Serif" font-weight="bold" font-size="11.00" fill="#000000">auteur</text>
<text text-anchor="start" x="252.0437" y="-305.3" font-family="Helvetica,sans-Serif" font-size="11.00" fill="#000000">[table]</text>
<polygon fill="none" stroke="#000000" points="210,-278.2 210,-297.2 287,-297.2 287,-278.2 210,-278.2"/>
<text text-anchor="start" x="213" y="-284.3" font-family="Helvetica,sans-Serif" font-size="11.00" fill="#000000">...</text>
<polygon fill="#ffffff" stroke="transparent" points="210,-259.2 210,-278.2 222,-278.2 222,-259.2 210,-259.2"/>
<polygon fill="none" stroke="#000000" points="210,-259.2 210,-278.2 222,-278.2 222,-259.2 210,-259.2"/>
<text text-anchor="start" x="212.9431" y="-265.3" font-family="Helvetica,sans-Serif" font-size="11.00" fill="#000000"> &#160;</text>
<polygon fill="#ffffff" stroke="transparent" points="222,-259.2 222,-278.2 266,-278.2 266,-259.2 222,-259.2"/>
<polygon fill="none" stroke="#000000" points="222,-259.2 222,-278.2 266,-278.2 266,-259.2 222,-259.2"/>
<text text-anchor="start" x="224.7478" y="-265.3" font-family="Helvetica,sans-Serif" font-size="11.00" fill="#000000">20 rows</text>
<polygon fill="#ffffff" stroke="transparent" points="266,-259.2 266,-278.2 287,-278.2 287,-259.2 266,-259.2"/>
<polygon fill="none" stroke="#000000" points="266,-259.2 266,-278.2 287,-278.2 287,-259.2 266,-259.2"/>
<text text-anchor="start" x="268.7027" y="-265.3" font-family="Helvetica,sans-Serif" font-size="11.00" fill="#000000">1 &gt;</text>
</a>
</g>
</g>
<!-- commentaire&#45;&gt;auteur -->
<g id="edge3" class="edge">
<title>commentaire:w&#45;&gt;auteur:e</title>
<path fill="none" stroke="#000000" d="M385.6134,-256.0893C345.6559,-261.2575 333.9978,-287.2 287,-287.2"/>
<polygon fill="#000000" stroke="#000000" points="392.0152,-255.6936 400.2221,-258.7931 396.0076,-255.4468 400,-255.2 400,-255.2 400,-255.2 396.0076,-255.4468 399.7779,-251.6069 392.0152,-255.6936 392.0152,-255.6936"/>
<ellipse fill="none" stroke="#000000" cx="388.8213" cy="-255.891" rx="3.2" ry="3.2"/>
</g>
</g>
</svg>
