<?xml version="1.0" encoding="UTF-8" standalone="no"?>
<!DOCTYPE svg PUBLIC "-//W3C//DTD SVG 1.1//EN"
 "http://www.w3.org/Graphics/SVG/1.1/DTD/svg11.dtd">
<!-- Generated by graphviz version 2.40.1 (20161225.0304)
 -->
<!-- Title: oneDegreeRelationshipsDiagram Pages: 1 -->
<svg width="315pt" height="205pt"
 viewBox="0.00 0.00 315.00 204.70" xmlns="http://www.w3.org/2000/svg" xmlns:xlink="http://www.w3.org/1999/xlink">
<g id="graph0" class="graph" transform="scale(1 1) rotate(0) translate(4 200.7)">
<title>oneDegreeRelationshipsDiagram</title>
<polygon fill="#ffffff" stroke="transparent" points="-4,4 -4,-200.7 311,-200.7 311,4 -4,4"/>
<text text-anchor="middle" x="72.4936" y="-7.3" font-family="Helvetica,sans-Serif" font-size="11.00" fill="#000000">Generated by SchemaSpy</text>
<!-- commentaire -->
<g id="node1" class="node">
<title>commentaire</title>
<g id="a_node1"><a xlink:href="../../tables/commentaire.html" xlink:title="commentaire" target="_top">
<polygon fill="#ffffff" stroke="transparent" points="193,-65.7 193,-192.7 299,-192.7 299,-65.7 193,-65.7"/>
<polygon fill="#f5f5f5" stroke="transparent" points="193,-169.2 193,-192.2 299,-192.2 299,-169.2 193,-169.2"/>
<polygon fill="none" stroke="#000000" points="193,-169.2 193,-192.2 299,-192.2 299,-169.2 193,-169.2"/>
<text text-anchor="start" x="197.721" y="-178.3" font-family="Helvetica,sans-Serif" font-weight="bold" font-size="11.00" fill="#000000">commentaire</text>
<text text-anchor="start" x="264.5219" y="-177.3" font-family="Helvetica,sans-Serif" font-size="11.00" fill="#000000">[table]</text>
<polygon fill="none" stroke="#000000" points="193,-147.2 193,-169.2 299,-169.2 299,-147.2 193,-147.2"/>
<image xlink:href="../../images/primaryKeys.png" width="11px" height="12px" preserveAspectRatio="xMinYMin meet" x="198" y="-164.2"/>
<text text-anchor="start" x="219" y="-154.3" font-family="Helvetica,sans-Serif" font-size="11.00" fill="#000000">id</text>
<polygon fill="#ffffff" stroke="transparent" points="193,-125.2 193,-147.2 299,-147.2 299,-125.2 193,-125.2"/>
<polygon fill="none" stroke="#000000" points="193,-125.2 193,-147.2 299,-147.2 299,-125.2 193,-125.2"/>
<image xlink:href="../../images/foreignKeys.png" width="11px" height="12px" preserveAspectRatio="xMinYMin meet" x="198" y="-142.2"/>
<text text-anchor="start" x="219" y="-132.3" font-family="Helvetica,sans-Serif" font-size="11.00" fill="#000000">auteur_id</text>
<polygon fill="#ffffff" stroke="transparent" points="193,-103.2 193,-125.2 299,-125.2 299,-103.2 193,-103.2"/>
<polygon fill="none" stroke="#000000" points="193,-103.2 193,-125.2 299,-125.2 299,-103.2 193,-103.2"/>
<image xlink:href="../../images/foreignKeys.png" width="11px" height="12px" preserveAspectRatio="xMinYMin meet" x="198" y="-120.2"/>
<text text-anchor="start" x="219" y="-110.3" font-family="Helvetica,sans-Serif" font-size="11.00" fill="#000000">article_id</text>
<polygon fill="none" stroke="#000000" points="193,-84.2 193,-103.2 299,-103.2 299,-84.2 193,-84.2"/>
<text text-anchor="start" x="196" y="-90.3" font-family="Helvetica,sans-Serif" font-size="11.00" fill="#000000">...</text>
<polygon fill="#ffffff" stroke="transparent" points="193,-65.2 193,-84.2 228,-84.2 228,-65.2 193,-65.2"/>
<polygon fill="none" stroke="#000000" points="193,-65.2 193,-84.2 228,-84.2 228,-65.2 193,-65.2"/>
<text text-anchor="start" x="196" y="-71.3" font-family="Helvetica,sans-Serif" font-size="11.00" fill="#000000">&lt; 2</text>
<polygon fill="#ffffff" stroke="transparent" points="228,-65.2 228,-84.2 279,-84.2 279,-65.2 228,-65.2"/>
<polygon fill="none" stroke="#000000" points="228,-65.2 228,-84.2 279,-84.2 279,-65.2 228,-65.2"/>
<text text-anchor="start" x="237.4956" y="-71.3" font-family="Helvetica,sans-Serif" font-size="11.00" fill="#000000">91 rows</text>
<polygon fill="#ffffff" stroke="transparent" points="279,-65.2 279,-84.2 299,-84.2 299,-65.2 279,-65.2"/>
<polygon fill="none" stroke="#000000" points="279,-65.2 279,-84.2 299,-84.2 299,-65.2 279,-65.2"/>
<text text-anchor="start" x="289.8862" y="-71.3" font-family="Helvetica,sans-Serif" font-size="11.00" fill="#000000"> &#160;</text>
</a>
</g>
</g>
<!-- auteur -->
<g id="node2" class="node">
<title>auteur</title>
<g id="a_node2"><a xlink:href="../../tables/auteur.html" xlink:title="auteur" target="_top">
<polygon fill="#ffffff" stroke="transparent" points="8,-38.2 8,-172.2 144,-172.2 144,-38.2 8,-38.2"/>
<polygon fill="#f5f5f5" stroke="transparent" points="10,-147.2 10,-170.2 142,-170.2 142,-147.2 10,-147.2"/>
<polygon fill="none" stroke="#000000" points="10,-147.2 10,-170.2 142,-170.2 142,-147.2 10,-147.2"/>
<text text-anchor="start" x="15" y="-156.3" font-family="Helvetica,sans-Serif" font-weight="bold" font-size="11.00" fill="#000000">auteur</text>
<text text-anchor="start" x="107.0437" y="-155.3" font-family="Helvetica,sans-Serif" font-size="11.00" fill="#000000">[table]</text>
<polygon fill="none" stroke="#000000" points="10,-125.2 10,-147.2 75,-147.2 75,-125.2 10,-125.2"/>
<image xlink:href="../../images/primaryKeys.png" width="11px" height="12px" preserveAspectRatio="xMinYMin meet" x="15" y="-142.2"/>
<text text-anchor="start" x="30" y="-132.3" font-family="Helvetica,sans-Serif" font-size="11.00" fill="#000000">id</text>
<polygon fill="none" stroke="#000000" points="75,-125.2 75,-147.2 142,-147.2 142,-125.2 75,-125.2"/>
<text text-anchor="start" x="78" y="-132.9" font-family="Helvetica,sans-Serif" font-size="11.00" fill="#000000">int[10]</text>
<polygon fill="none" stroke="#000000" points="10,-103.2 10,-125.2 75,-125.2 75,-103.2 10,-103.2"/>
<text text-anchor="start" x="30" y="-110.3" font-family="Helvetica,sans-Serif" font-size="11.00" fill="#000000">prenom</text>
<polygon fill="none" stroke="#000000" points="75,-103.2 75,-125.2 142,-125.2 142,-103.2 75,-103.2"/>
<text text-anchor="start" x="77.9365" y="-110.9" font-family="Helvetica,sans-Serif" font-size="11.00" fill="#000000">varchar[150]</text>
<polygon fill="none" stroke="#000000" points="10,-81.2 10,-103.2 75,-103.2 75,-81.2 10,-81.2"/>
<text text-anchor="start" x="30" y="-88.3" font-family="Helvetica,sans-Serif" font-size="11.00" fill="#000000">nom</text>
<polygon fill="none" stroke="#000000" points="75,-81.2 75,-103.2 142,-103.2 142,-81.2 75,-81.2"/>
<text text-anchor="start" x="77.9365" y="-88.9" font-family="Helvetica,sans-Serif" font-size="11.00" fill="#000000">varchar[150]</text>
<polygon fill="none" stroke="#000000" points="10,-59.2 10,-81.2 75,-81.2 75,-59.2 10,-59.2"/>
<text text-anchor="start" x="30" y="-66.3" font-family="Helvetica,sans-Serif" font-size="11.00" fill="#000000">pseudo</text>
<polygon fill="none" stroke="#000000" points="75,-59.2 75,-81.2 142,-81.2 142,-59.2 75,-59.2"/>
<text text-anchor="start" x="77.9365" y="-66.9" font-family="Helvetica,sans-Serif" font-size="11.00" fill="#000000">varchar[255]</text>
<polygon fill="#ffffff" stroke="transparent" points="10,-40.2 10,-59.2 31,-59.2 31,-40.2 10,-40.2"/>
<polygon fill="none" stroke="#000000" points="10,-40.2 10,-59.2 31,-59.2 31,-40.2 10,-40.2"/>
<text text-anchor="start" x="12.7027" y="-46.3" font-family="Helvetica,sans-Serif" font-size="11.00" fill="#000000">&lt; 0</text>
<polygon fill="#ffffff" stroke="transparent" points="31,-40.2 31,-59.2 75,-59.2 75,-40.2 31,-40.2"/>
<polygon fill="none" stroke="#000000" points="31,-40.2 31,-59.2 75,-59.2 75,-40.2 31,-40.2"/>
<text text-anchor="start" x="33.7478" y="-46.3" font-family="Helvetica,sans-Serif" font-size="11.00" fill="#000000">20 rows</text>
<polygon fill="#ffffff" stroke="transparent" points="75,-40.2 75,-59.2 142,-59.2 142,-40.2 75,-40.2"/>
<polygon fill="none" stroke="#000000" points="75,-40.2 75,-59.2 142,-59.2 142,-40.2 75,-40.2"/>
<text text-anchor="start" x="123.4053" y="-46.3" font-family="Helvetica,sans-Serif" font-size="11.00" fill="#000000">1 &gt;</text>
<polygon fill="none" stroke="#000000" stroke-width="2" points="9,-39.2 9,-171.2 143,-171.2 143,-39.2 9,-39.2"/>
</a>
</g>
</g>
<!-- commentaire&#45;&gt;auteur -->
<g id="edge1" class="edge">
<title>commentaire:w&#45;&gt;auteur:e</title>
<path fill="none" stroke="#000000" d="M178.276,-136.2C166.2815,-136.2 158.8229,-136.2 142,-136.2"/>
<polygon fill="#000000" stroke="#000000" points="185,-136.2001 193,-139.8 189,-136.2 193,-136.2 193,-136.2 193,-136.2 189,-136.2 193,-132.6 185,-136.2001 185,-136.2001"/>
<ellipse fill="none" stroke="#000000" cx="181.8" cy="-136.2001" rx="3.2" ry="3.2"/>
</g>
</g>
</svg>
