<?xml version="1.0" encoding="UTF-8" standalone="no"?>
<!DOCTYPE svg PUBLIC "-//W3C//DTD SVG 1.1//EN"
 "http://www.w3.org/Graphics/SVG/1.1/DTD/svg11.dtd">
<!-- Generated by graphviz version 2.40.1 (20161225.0304)
 -->
<!-- Title: twoDegreesRelationshipsDiagram Pages: 1 -->
<svg width="315pt" height="267pt"
 viewBox="0.00 0.00 315.00 266.70" xmlns="http://www.w3.org/2000/svg" xmlns:xlink="http://www.w3.org/1999/xlink">
<g id="graph0" class="graph" transform="scale(1 1) rotate(0) translate(4 262.7)">
<title>twoDegreesRelationshipsDiagram</title>
<polygon fill="#ffffff" stroke="transparent" points="-4,4 -4,-262.7 311,-262.7 311,4 -4,4"/>
<text text-anchor="middle" x="72.4936" y="-7.3" font-family="Helvetica,sans-Serif" font-size="11.00" fill="#000000">Generated by SchemaSpy</text>
<!-- commentaire -->
<g id="node1" class="node">
<title>commentaire</title>
<g id="a_node1"><a xlink:href="../../tables/commentaire.html" xlink:title="commentaire" target="_top">
<polygon fill="#ffffff" stroke="transparent" points="193,-82.2 193,-209.2 299,-209.2 299,-82.2 193,-82.2"/>
<polygon fill="#f5f5f5" stroke="transparent" points="193,-185.7 193,-208.7 299,-208.7 299,-185.7 193,-185.7"/>
<polygon fill="none" stroke="#000000" points="193,-185.7 193,-208.7 299,-208.7 299,-185.7 193,-185.7"/>
<text text-anchor="start" x="197.721" y="-194.8" font-family="Helvetica,sans-Serif" font-weight="bold" font-size="11.00" fill="#000000">commentaire</text>
<text text-anchor="start" x="264.5219" y="-193.8" font-family="Helvetica,sans-Serif" font-size="11.00" fill="#000000">[table]</text>
<polygon fill="none" stroke="#000000" points="193,-163.7 193,-185.7 299,-185.7 299,-163.7 193,-163.7"/>
<image xlink:href="../../images/primaryKeys.png" width="11px" height="12px" preserveAspectRatio="xMinYMin meet" x="198" y="-180.7"/>
<text text-anchor="start" x="219" y="-170.8" font-family="Helvetica,sans-Serif" font-size="11.00" fill="#000000">id</text>
<polygon fill="#ffffff" stroke="transparent" points="193,-141.7 193,-163.7 299,-163.7 299,-141.7 193,-141.7"/>
<polygon fill="none" stroke="#000000" points="193,-141.7 193,-163.7 299,-163.7 299,-141.7 193,-141.7"/>
<image xlink:href="../../images/foreignKeys.png" width="11px" height="12px" preserveAspectRatio="xMinYMin meet" x="198" y="-158.7"/>
<text text-anchor="start" x="219" y="-148.8" font-family="Helvetica,sans-Serif" font-size="11.00" fill="#000000">auteur_id</text>
<polygon fill="#ffffff" stroke="transparent" points="193,-119.7 193,-141.7 299,-141.7 299,-119.7 193,-119.7"/>
<polygon fill="none" stroke="#000000" points="193,-119.7 193,-141.7 299,-141.7 299,-119.7 193,-119.7"/>
<image xlink:href="../../images/foreignKeys.png" width="11px" height="12px" preserveAspectRatio="xMinYMin meet" x="198" y="-136.7"/>
<text text-anchor="start" x="219" y="-126.8" font-family="Helvetica,sans-Serif" font-size="11.00" fill="#000000">article_id</text>
<polygon fill="none" stroke="#000000" points="193,-100.7 193,-119.7 299,-119.7 299,-100.7 193,-100.7"/>
<text text-anchor="start" x="196" y="-106.8" font-family="Helvetica,sans-Serif" font-size="11.00" fill="#000000">...</text>
<polygon fill="#ffffff" stroke="transparent" points="193,-81.7 193,-100.7 228,-100.7 228,-81.7 193,-81.7"/>
<polygon fill="none" stroke="#000000" points="193,-81.7 193,-100.7 228,-100.7 228,-81.7 193,-81.7"/>
<text text-anchor="start" x="196" y="-87.8" font-family="Helvetica,sans-Serif" font-size="11.00" fill="#000000">&lt; 2</text>
<polygon fill="#ffffff" stroke="transparent" points="228,-81.7 228,-100.7 279,-100.7 279,-81.7 228,-81.7"/>
<polygon fill="none" stroke="#000000" points="228,-81.7 228,-100.7 279,-100.7 279,-81.7 228,-81.7"/>
<text text-anchor="start" x="237.4956" y="-87.8" font-family="Helvetica,sans-Serif" font-size="11.00" fill="#000000">91 rows</text>
<polygon fill="#ffffff" stroke="transparent" points="279,-81.7 279,-100.7 299,-100.7 299,-81.7 279,-81.7"/>
<polygon fill="none" stroke="#000000" points="279,-81.7 279,-100.7 299,-100.7 299,-81.7 279,-81.7"/>
<text text-anchor="start" x="289.8862" y="-87.8" font-family="Helvetica,sans-Serif" font-size="11.00" fill="#000000"> &#160;</text>
</a>
</g>
</g>
<!-- article -->
<g id="node2" class="node">
<title>article</title>
<g id="a_node2"><a xlink:href="../../tables/article.html" xlink:title="article" target="_top">
<polygon fill="#ffffff" stroke="transparent" points="30,-38.2 30,-99.2 122,-99.2 122,-38.2 30,-38.2"/>
<polygon fill="#f5f5f5" stroke="transparent" points="30,-75.7 30,-98.7 122,-98.7 122,-75.7 30,-75.7"/>
<polygon fill="none" stroke="#000000" points="30,-75.7 30,-98.7 122,-98.7 122,-75.7 30,-75.7"/>
<text text-anchor="start" x="35" y="-84.8" font-family="Helvetica,sans-Serif" font-weight="bold" font-size="11.00" fill="#000000">article</text>
<text text-anchor="start" x="87.0437" y="-83.8" font-family="Helvetica,sans-Serif" font-size="11.00" fill="#000000">[table]</text>
<polygon fill="none" stroke="#000000" points="30,-56.7 30,-75.7 122,-75.7 122,-56.7 30,-56.7"/>
<text text-anchor="start" x="33" y="-62.8" font-family="Helvetica,sans-Serif" font-size="11.00" fill="#000000">...</text>
<polygon fill="#ffffff" stroke="transparent" points="30,-37.7 30,-56.7 51,-56.7 51,-37.7 30,-37.7"/>
<polygon fill="none" stroke="#000000" points="30,-37.7 30,-56.7 51,-56.7 51,-37.7 30,-37.7"/>
<text text-anchor="start" x="32.7027" y="-43.8" font-family="Helvetica,sans-Serif" font-size="11.00" fill="#000000">&lt; 1</text>
<polygon fill="#ffffff" stroke="transparent" points="51,-37.7 51,-56.7 101,-56.7 101,-37.7 51,-37.7"/>
<polygon fill="none" stroke="#000000" points="51,-37.7 51,-56.7 101,-56.7 101,-37.7 51,-37.7"/>
<text text-anchor="start" x="53.6904" y="-43.8" font-family="Helvetica,sans-Serif" font-size="11.00" fill="#000000">100 rows</text>
<polygon fill="#ffffff" stroke="transparent" points="101,-37.7 101,-56.7 122,-56.7 122,-37.7 101,-37.7"/>
<polygon fill="none" stroke="#000000" points="101,-37.7 101,-56.7 122,-56.7 122,-37.7 101,-37.7"/>
<text text-anchor="start" x="103.7027" y="-43.8" font-family="Helvetica,sans-Serif" font-size="11.00" fill="#000000">1 &gt;</text>
</a>
</g>
</g>
<!-- commentaire&#45;&gt;article -->
<g id="edge1" class="edge">
<title>commentaire:w&#45;&gt;article:e</title>
<path fill="none" stroke="#000000" d="M178.7199,-127.5649C153.0749,-114.5809 159.1002,-65.7 122,-65.7"/>
<polygon fill="#000000" stroke="#000000" points="185.1861,-128.9845 192.228,-134.2163 189.093,-129.8422 193,-130.7 193,-130.7 193,-130.7 189.093,-129.8422 193.772,-127.1837 185.1861,-128.9845 185.1861,-128.9845"/>
<ellipse fill="none" stroke="#000000" cx="182.0605" cy="-128.2983" rx="3.2" ry="3.2"/>
</g>
<!-- auteur -->
<g id="node3" class="node">
<title>auteur</title>
<g id="a_node3"><a xlink:href="../../tables/auteur.html" xlink:title="auteur" target="_top">
<polygon fill="#ffffff" stroke="transparent" points="8,-120.7 8,-254.7 144,-254.7 144,-120.7 8,-120.7"/>
<polygon fill="#f5f5f5" stroke="transparent" points="10,-229.7 10,-252.7 142,-252.7 142,-229.7 10,-229.7"/>
<polygon fill="none" stroke="#000000" points="10,-229.7 10,-252.7 142,-252.7 142,-229.7 10,-229.7"/>
<text text-anchor="start" x="15" y="-238.8" font-family="Helvetica,sans-Serif" font-weight="bold" font-size="11.00" fill="#000000">auteur</text>
<text text-anchor="start" x="107.0437" y="-237.8" font-family="Helvetica,sans-Serif" font-size="11.00" fill="#000000">[table]</text>
<polygon fill="none" stroke="#000000" points="10,-207.7 10,-229.7 75,-229.7 75,-207.7 10,-207.7"/>
<image xlink:href="../../images/primaryKeys.png" width="11px" height="12px" preserveAspectRatio="xMinYMin meet" x="15" y="-224.7"/>
<text text-anchor="start" x="30" y="-214.8" font-family="Helvetica,sans-Serif" font-size="11.00" fill="#000000">id</text>
<polygon fill="none" stroke="#000000" points="75,-207.7 75,-229.7 142,-229.7 142,-207.7 75,-207.7"/>
<text text-anchor="start" x="78" y="-215.4" font-family="Helvetica,sans-Serif" font-size="11.00" fill="#000000">int[10]</text>
<polygon fill="none" stroke="#000000" points="10,-185.7 10,-207.7 75,-207.7 75,-185.7 10,-185.7"/>
<text text-anchor="start" x="30" y="-192.8" font-family="Helvetica,sans-Serif" font-size="11.00" fill="#000000">prenom</text>
<polygon fill="none" stroke="#000000" points="75,-185.7 75,-207.7 142,-207.7 142,-185.7 75,-185.7"/>
<text text-anchor="start" x="77.9365" y="-193.4" font-family="Helvetica,sans-Serif" font-size="11.00" fill="#000000">varchar[150]</text>
<polygon fill="none" stroke="#000000" points="10,-163.7 10,-185.7 75,-185.7 75,-163.7 10,-163.7"/>
<text text-anchor="start" x="30" y="-170.8" font-family="Helvetica,sans-Serif" font-size="11.00" fill="#000000">nom</text>
<polygon fill="none" stroke="#000000" points="75,-163.7 75,-185.7 142,-185.7 142,-163.7 75,-163.7"/>
<text text-anchor="start" x="77.9365" y="-171.4" font-family="Helvetica,sans-Serif" font-size="11.00" fill="#000000">varchar[150]</text>
<polygon fill="none" stroke="#000000" points="10,-141.7 10,-163.7 75,-163.7 75,-141.7 10,-141.7"/>
<text text-anchor="start" x="30" y="-148.8" font-family="Helvetica,sans-Serif" font-size="11.00" fill="#000000">pseudo</text>
<polygon fill="none" stroke="#000000" points="75,-141.7 75,-163.7 142,-163.7 142,-141.7 75,-141.7"/>
<text text-anchor="start" x="77.9365" y="-149.4" font-family="Helvetica,sans-Serif" font-size="11.00" fill="#000000">varchar[255]</text>
<polygon fill="#ffffff" stroke="transparent" points="10,-122.7 10,-141.7 31,-141.7 31,-122.7 10,-122.7"/>
<polygon fill="none" stroke="#000000" points="10,-122.7 10,-141.7 31,-141.7 31,-122.7 10,-122.7"/>
<text text-anchor="start" x="12.7027" y="-128.8" font-family="Helvetica,sans-Serif" font-size="11.00" fill="#000000">&lt; 0</text>
<polygon fill="#ffffff" stroke="transparent" points="31,-122.7 31,-141.7 75,-141.7 75,-122.7 31,-122.7"/>
<polygon fill="none" stroke="#000000" points="31,-122.7 31,-141.7 75,-141.7 75,-122.7 31,-122.7"/>
<text text-anchor="start" x="33.7478" y="-128.8" font-family="Helvetica,sans-Serif" font-size="11.00" fill="#000000">20 rows</text>
<polygon fill="#ffffff" stroke="transparent" points="75,-122.7 75,-141.7 142,-141.7 142,-122.7 75,-122.7"/>
<polygon fill="none" stroke="#000000" points="75,-122.7 75,-141.7 142,-141.7 142,-122.7 75,-122.7"/>
<text text-anchor="start" x="123.4053" y="-128.8" font-family="Helvetica,sans-Serif" font-size="11.00" fill="#000000">1 &gt;</text>
<polygon fill="none" stroke="#000000" stroke-width="2" points="9,-121.7 9,-253.7 143,-253.7 143,-121.7 9,-121.7"/>
</a>
</g>
</g>
<!-- commentaire&#45;&gt;auteur -->
<g id="edge2" class="edge">
<title>commentaire:w&#45;&gt;auteur:e</title>
<path fill="none" stroke="#000000" d="M179.0846,-157.4466C161.902,-172.5798 172.9886,-218.7 142,-218.7"/>
<polygon fill="#000000" stroke="#000000" points="185.4284,-155.2827 194.1622,-156.1072 189.2142,-153.9914 193,-152.7 193,-152.7 193,-152.7 189.2142,-153.9914 191.8378,-149.2928 185.4284,-155.2827 185.4284,-155.2827"/>
<ellipse fill="none" stroke="#000000" cx="182.3997" cy="-156.3158" rx="3.2" ry="3.2"/>
</g>
</g>
</svg>
