<?xml version="1.0" encoding="UTF-8" standalone="no"?>
<!DOCTYPE svg PUBLIC "-//W3C//DTD SVG 1.1//EN"
 "http://www.w3.org/Graphics/SVG/1.1/DTD/svg11.dtd">
<!-- Generated by graphviz version 2.40.1 (20161225.0304)
 -->
<!-- Title: twoDegreesRelationshipsDiagram Pages: 1 -->
<svg width="512pt" height="259pt"
 viewBox="0.00 0.00 512.00 259.20" xmlns="http://www.w3.org/2000/svg" xmlns:xlink="http://www.w3.org/1999/xlink">
<g id="graph0" class="graph" transform="scale(1 1) rotate(0) translate(4 255.2)">
<title>twoDegreesRelationshipsDiagram</title>
<polygon fill="#ffffff" stroke="transparent" points="-4,4 -4,-255.2 508,-255.2 508,4 -4,4"/>
<text text-anchor="middle" x="72.4936" y="-7.3" font-family="Helvetica,sans-Serif" font-size="11.00" fill="#000000">Generated by SchemaSpy</text>
<!-- article -->
<g id="node1" class="node">
<title>article</title>
<g id="a_node1"><a xlink:href="../../tables/article.html" xlink:title="article" target="_top">
<polygon fill="#ffffff" stroke="transparent" points="145,-38.2 145,-143.2 237,-143.2 237,-38.2 145,-38.2"/>
<polygon fill="#f5f5f5" stroke="transparent" points="145,-119.7 145,-142.7 237,-142.7 237,-119.7 145,-119.7"/>
<polygon fill="none" stroke="#000000" points="145,-119.7 145,-142.7 237,-142.7 237,-119.7 145,-119.7"/>
<text text-anchor="start" x="150" y="-128.8" font-family="Helvetica,sans-Serif" font-weight="bold" font-size="11.00" fill="#000000">article</text>
<text text-anchor="start" x="202.0437" y="-127.8" font-family="Helvetica,sans-Serif" font-size="11.00" fill="#000000">[table]</text>
<polygon fill="none" stroke="#000000" points="145,-97.7 145,-119.7 237,-119.7 237,-97.7 145,-97.7"/>
<image xlink:href="../../images/primaryKeys.png" width="11px" height="12px" preserveAspectRatio="xMinYMin meet" x="150" y="-114.7"/>
<text text-anchor="start" x="166" y="-104.8" font-family="Helvetica,sans-Serif" font-size="11.00" fill="#000000">id</text>
<polygon fill="#ffffff" stroke="transparent" points="145,-75.7 145,-97.7 237,-97.7 237,-75.7 145,-75.7"/>
<polygon fill="none" stroke="#000000" points="145,-75.7 145,-97.7 237,-97.7 237,-75.7 145,-75.7"/>
<image xlink:href="../../images/foreignKeys.png" width="11px" height="12px" preserveAspectRatio="xMinYMin meet" x="150" y="-92.7"/>
<text text-anchor="start" x="166" y="-82.8" font-family="Helvetica,sans-Serif" font-size="11.00" fill="#000000">categorie_id</text>
<polygon fill="none" stroke="#000000" points="145,-56.7 145,-75.7 237,-75.7 237,-56.7 145,-56.7"/>
<text text-anchor="start" x="148" y="-62.8" font-family="Helvetica,sans-Serif" font-size="11.00" fill="#000000">...</text>
<polygon fill="#ffffff" stroke="transparent" points="145,-37.7 145,-56.7 166,-56.7 166,-37.7 145,-37.7"/>
<polygon fill="none" stroke="#000000" points="145,-37.7 145,-56.7 166,-56.7 166,-37.7 145,-37.7"/>
<text text-anchor="start" x="147.7027" y="-43.8" font-family="Helvetica,sans-Serif" font-size="11.00" fill="#000000">&lt; 1</text>
<polygon fill="#ffffff" stroke="transparent" points="166,-37.7 166,-56.7 216,-56.7 216,-37.7 166,-37.7"/>
<polygon fill="none" stroke="#000000" points="166,-37.7 166,-56.7 216,-56.7 216,-37.7 166,-37.7"/>
<text text-anchor="start" x="168.6904" y="-43.8" font-family="Helvetica,sans-Serif" font-size="11.00" fill="#000000">100 rows</text>
<polygon fill="#ffffff" stroke="transparent" points="216,-37.7 216,-56.7 237,-56.7 237,-37.7 216,-37.7"/>
<polygon fill="none" stroke="#000000" points="216,-37.7 216,-56.7 237,-56.7 237,-37.7 216,-37.7"/>
<text text-anchor="start" x="218.7027" y="-43.8" font-family="Helvetica,sans-Serif" font-size="11.00" fill="#000000">1 &gt;</text>
</a>
</g>
</g>
<!-- categorie -->
<g id="node2" class="node">
<title>categorie</title>
<g id="a_node2"><a xlink:href="../../tables/categorie.html" xlink:title="categorie" target="_top">
<polygon fill="#ffffff" stroke="transparent" points="8,-59.2 8,-120.2 96,-120.2 96,-59.2 8,-59.2"/>
<polygon fill="#f5f5f5" stroke="transparent" points="8,-96.7 8,-119.7 96,-119.7 96,-96.7 8,-96.7"/>
<polygon fill="none" stroke="#000000" points="8,-96.7 8,-119.7 96,-119.7 96,-96.7 8,-96.7"/>
<text text-anchor="start" x="12.8829" y="-105.8" font-family="Helvetica,sans-Serif" font-weight="bold" font-size="11.00" fill="#000000">categorie</text>
<text text-anchor="start" x="61.5219" y="-104.8" font-family="Helvetica,sans-Serif" font-size="11.00" fill="#000000">[table]</text>
<polygon fill="none" stroke="#000000" points="8,-77.7 8,-96.7 96,-96.7 96,-77.7 8,-77.7"/>
<text text-anchor="start" x="11" y="-83.8" font-family="Helvetica,sans-Serif" font-size="11.00" fill="#000000">...</text>
<polygon fill="#ffffff" stroke="transparent" points="8,-58.7 8,-77.7 28,-77.7 28,-58.7 8,-58.7"/>
<polygon fill="none" stroke="#000000" points="8,-58.7 8,-77.7 28,-77.7 28,-58.7 8,-58.7"/>
<text text-anchor="start" x="11" y="-64.8" font-family="Helvetica,sans-Serif" font-size="11.00" fill="#000000"> &#160;</text>
<polygon fill="#ffffff" stroke="transparent" points="28,-58.7 28,-77.7 70,-77.7 70,-58.7 28,-58.7"/>
<polygon fill="none" stroke="#000000" points="28,-58.7 28,-77.7 70,-77.7 70,-58.7 28,-58.7"/>
<text text-anchor="start" x="34.6105" y="-64.8" font-family="Helvetica,sans-Serif" font-size="11.00" fill="#000000">9 rows</text>
<polygon fill="#ffffff" stroke="transparent" points="70,-58.7 70,-77.7 96,-77.7 96,-58.7 70,-58.7"/>
<polygon fill="none" stroke="#000000" points="70,-58.7 70,-77.7 96,-77.7 96,-58.7 70,-58.7"/>
<text text-anchor="start" x="77.4053" y="-64.8" font-family="Helvetica,sans-Serif" font-size="11.00" fill="#000000">1 &gt;</text>
</a>
</g>
</g>
<!-- article&#45;&gt;categorie -->
<g id="edge1" class="edge">
<title>article:w&#45;&gt;categorie:e</title>
<path fill="none" stroke="#000000" d="M130.4909,-86.7C119.1774,-86.7 111.9931,-86.7 96,-86.7"/>
<polygon fill="#000000" stroke="#000000" points="137,-86.7001 145,-90.3 141,-86.7 145,-86.7 145,-86.7 145,-86.7 141,-86.7 145,-83.1 137,-86.7001 137,-86.7001"/>
<ellipse fill="none" stroke="#000000" cx="133.8" cy="-86.7001" rx="3.2" ry="3.2"/>
</g>
<!-- commentaire -->
<g id="node3" class="node">
<title>commentaire</title>
<g id="a_node3"><a xlink:href="../../tables/commentaire.html" xlink:title="commentaire" target="_top">
<polygon fill="#ffffff" stroke="transparent" points="286,-73.7 286,-229.7 496,-229.7 496,-73.7 286,-73.7"/>
<polygon fill="#f5f5f5" stroke="transparent" points="288,-204.7 288,-227.7 494,-227.7 494,-204.7 288,-204.7"/>
<polygon fill="none" stroke="#000000" points="288,-204.7 288,-227.7 494,-227.7 494,-204.7 288,-204.7"/>
<text text-anchor="start" x="293" y="-213.8" font-family="Helvetica,sans-Serif" font-weight="bold" font-size="11.00" fill="#000000">commentaire</text>
<text text-anchor="start" x="459.0437" y="-212.8" font-family="Helvetica,sans-Serif" font-size="11.00" fill="#000000">[table]</text>
<polygon fill="none" stroke="#000000" points="288,-182.7 288,-204.7 383,-204.7 383,-182.7 288,-182.7"/>
<image xlink:href="../../images/primaryKeys.png" width="11px" height="12px" preserveAspectRatio="xMinYMin meet" x="293" y="-199.7"/>
<text text-anchor="start" x="308" y="-189.8" font-family="Helvetica,sans-Serif" font-size="11.00" fill="#000000">id</text>
<polygon fill="none" stroke="#000000" points="383,-182.7 383,-204.7 494,-204.7 494,-182.7 383,-182.7"/>
<text text-anchor="start" x="386" y="-190.4" font-family="Helvetica,sans-Serif" font-size="11.00" fill="#000000">int[10]</text>
<polygon fill="#ffffff" stroke="transparent" points="288,-160.7 288,-182.7 383,-182.7 383,-160.7 288,-160.7"/>
<polygon fill="none" stroke="#000000" points="288,-160.7 288,-182.7 383,-182.7 383,-160.7 288,-160.7"/>
<image xlink:href="../../images/foreignKeys.png" width="11px" height="12px" preserveAspectRatio="xMinYMin meet" x="293" y="-177.7"/>
<text text-anchor="start" x="308" y="-167.8" font-family="Helvetica,sans-Serif" font-size="11.00" fill="#000000">auteur_id</text>
<polygon fill="none" stroke="#000000" points="383,-160.7 383,-182.7 494,-182.7 494,-160.7 383,-160.7"/>
<text text-anchor="start" x="386" y="-168.4" font-family="Helvetica,sans-Serif" font-size="11.00" fill="#000000">int[10]</text>
<polygon fill="#ffffff" stroke="transparent" points="288,-138.7 288,-160.7 383,-160.7 383,-138.7 288,-138.7"/>
<polygon fill="none" stroke="#000000" points="288,-138.7 288,-160.7 383,-160.7 383,-138.7 288,-138.7"/>
<image xlink:href="../../images/foreignKeys.png" width="11px" height="12px" preserveAspectRatio="xMinYMin meet" x="293" y="-155.7"/>
<text text-anchor="start" x="308" y="-145.8" font-family="Helvetica,sans-Serif" font-size="11.00" fill="#000000">article_id</text>
<polygon fill="none" stroke="#000000" points="383,-138.7 383,-160.7 494,-160.7 494,-138.7 383,-138.7"/>
<text text-anchor="start" x="386" y="-146.4" font-family="Helvetica,sans-Serif" font-size="11.00" fill="#000000">int[10]</text>
<polygon fill="none" stroke="#000000" points="288,-116.7 288,-138.7 383,-138.7 383,-116.7 288,-116.7"/>
<text text-anchor="start" x="308" y="-123.8" font-family="Helvetica,sans-Serif" font-size="11.00" fill="#000000">contenu</text>
<polygon fill="none" stroke="#000000" points="383,-116.7 383,-138.7 494,-138.7 494,-116.7 383,-116.7"/>
<text text-anchor="start" x="385.6115" y="-124.4" font-family="Helvetica,sans-Serif" font-size="11.00" fill="#000000">longtext[2147483647]</text>
<polygon fill="none" stroke="#000000" points="288,-94.7 288,-116.7 383,-116.7 383,-94.7 288,-94.7"/>
<text text-anchor="start" x="308" y="-101.8" font-family="Helvetica,sans-Serif" font-size="11.00" fill="#000000">created_at</text>
<polygon fill="none" stroke="#000000" points="383,-94.7 383,-116.7 494,-116.7 494,-94.7 383,-94.7"/>
<text text-anchor="start" x="386" y="-102.4" font-family="Helvetica,sans-Serif" font-size="11.00" fill="#000000">datetime[19]</text>
<polygon fill="#ffffff" stroke="transparent" points="288,-75.7 288,-94.7 324,-94.7 324,-75.7 288,-75.7"/>
<polygon fill="none" stroke="#000000" points="288,-75.7 288,-94.7 324,-94.7 324,-75.7 288,-75.7"/>
<text text-anchor="start" x="291" y="-81.8" font-family="Helvetica,sans-Serif" font-size="11.00" fill="#000000">&lt; 2</text>
<polygon fill="#ffffff" stroke="transparent" points="324,-75.7 324,-94.7 383,-94.7 383,-75.7 324,-75.7"/>
<polygon fill="none" stroke="#000000" points="324,-75.7 324,-94.7 383,-94.7 383,-75.7 324,-75.7"/>
<text text-anchor="start" x="341.4956" y="-81.8" font-family="Helvetica,sans-Serif" font-size="11.00" fill="#000000">91 rows</text>
<polygon fill="#ffffff" stroke="transparent" points="383,-75.7 383,-94.7 494,-94.7 494,-75.7 383,-75.7"/>
<polygon fill="none" stroke="#000000" points="383,-75.7 383,-94.7 494,-94.7 494,-75.7 383,-75.7"/>
<text text-anchor="start" x="475.4053" y="-81.8" font-family="Helvetica,sans-Serif" font-size="11.00" fill="#000000">0 &gt;</text>
<polygon fill="none" stroke="#000000" stroke-width="2" points="287,-74.7 287,-228.7 495,-228.7 495,-74.7 287,-74.7"/>
</a>
</g>
</g>
<!-- commentaire&#45;&gt;article -->
<g id="edge2" class="edge">
<title>commentaire:w&#45;&gt;article:e</title>
<path fill="none" stroke="#000000" d="M274.1568,-145.3123C260.3325,-134.7354 260.1756,-108.7 237,-108.7"/>
<polygon fill="#000000" stroke="#000000" points="280.3739,-147.2828 286.9123,-153.1317 284.1869,-148.4914 288,-149.7 288,-149.7 288,-149.7 284.1869,-148.4914 289.0877,-146.2683 280.3739,-147.2828 280.3739,-147.2828"/>
<ellipse fill="none" stroke="#000000" cx="277.3235" cy="-146.3159" rx="3.2" ry="3.2"/>
</g>
<!-- auteur -->
<g id="node4" class="node">
<title>auteur</title>
<g id="a_node4"><a xlink:href="../../tables/auteur.html" xlink:title="auteur" target="_top">
<polygon fill="#ffffff" stroke="transparent" points="152.5,-164.2 152.5,-247.2 229.5,-247.2 229.5,-164.2 152.5,-164.2"/>
<polygon fill="#f5f5f5" stroke="transparent" points="153,-223.7 153,-246.7 230,-246.7 230,-223.7 153,-223.7"/>
<polygon fill="none" stroke="#000000" points="153,-223.7 153,-246.7 230,-246.7 230,-223.7 153,-223.7"/>
<text text-anchor="start" x="158" y="-232.8" font-family="Helvetica,sans-Serif" font-weight="bold" font-size="11.00" fill="#000000">auteur</text>
<text text-anchor="start" x="195.0437" y="-231.8" font-family="Helvetica,sans-Serif" font-size="11.00" fill="#000000">[table]</text>
<polygon fill="none" stroke="#000000" points="153,-201.7 153,-223.7 230,-223.7 230,-201.7 153,-201.7"/>
<image xlink:href="../../images/primaryKeys.png" width="11px" height="12px" preserveAspectRatio="xMinYMin meet" x="158" y="-218.7"/>
<text text-anchor="start" x="179" y="-208.8" font-family="Helvetica,sans-Serif" font-size="11.00" fill="#000000">id</text>
<polygon fill="none" stroke="#000000" points="153,-182.7 153,-201.7 230,-201.7 230,-182.7 153,-182.7"/>
<text text-anchor="start" x="156" y="-188.8" font-family="Helvetica,sans-Serif" font-size="11.00" fill="#000000">...</text>
<polygon fill="#ffffff" stroke="transparent" points="153,-163.7 153,-182.7 165,-182.7 165,-163.7 153,-163.7"/>
<polygon fill="none" stroke="#000000" points="153,-163.7 153,-182.7 165,-182.7 165,-163.7 153,-163.7"/>
<text text-anchor="start" x="155.9431" y="-169.8" font-family="Helvetica,sans-Serif" font-size="11.00" fill="#000000"> &#160;</text>
<polygon fill="#ffffff" stroke="transparent" points="165,-163.7 165,-182.7 209,-182.7 209,-163.7 165,-163.7"/>
<polygon fill="none" stroke="#000000" points="165,-163.7 165,-182.7 209,-182.7 209,-163.7 165,-163.7"/>
<text text-anchor="start" x="167.7478" y="-169.8" font-family="Helvetica,sans-Serif" font-size="11.00" fill="#000000">20 rows</text>
<polygon fill="#ffffff" stroke="transparent" points="209,-163.7 209,-182.7 230,-182.7 230,-163.7 209,-163.7"/>
<polygon fill="none" stroke="#000000" points="209,-163.7 209,-182.7 230,-182.7 230,-163.7 209,-163.7"/>
<text text-anchor="start" x="211.7027" y="-169.8" font-family="Helvetica,sans-Serif" font-size="11.00" fill="#000000">1 &gt;</text>
</a>
</g>
</g>
<!-- commentaire&#45;&gt;auteur -->
<g id="edge3" class="edge">
<title>commentaire:w&#45;&gt;auteur:e</title>
<path fill="none" stroke="#000000" d="M273.6302,-175.4837C257.0676,-185.6336 255.6491,-212.7 230,-212.7"/>
<polygon fill="#000000" stroke="#000000" points="280.2637,-173.7371 288.9167,-175.1813 284.1318,-172.7185 288,-171.7 288,-171.7 288,-171.7 284.1318,-172.7185 287.0833,-168.2187 280.2637,-173.7371 280.2637,-173.7371"/>
<ellipse fill="none" stroke="#000000" cx="277.1692" cy="-174.5519" rx="3.2" ry="3.2"/>
</g>
</g>
</svg>
