<?xml version="1.0" encoding="UTF-8" standalone="no"?>
<!DOCTYPE svg PUBLIC "-//W3C//DTD SVG 1.1//EN"
 "http://www.w3.org/Graphics/SVG/1.1/DTD/svg11.dtd">
<!-- Generated by graphviz version 2.40.1 (20161225.0304)
 -->
<!-- Title: oneDegreeRelationshipsDiagram Pages: 1 -->
<svg width="375pt" height="259pt"
 viewBox="0.00 0.00 375.00 259.20" xmlns="http://www.w3.org/2000/svg" xmlns:xlink="http://www.w3.org/1999/xlink">
<g id="graph0" class="graph" transform="scale(1 1) rotate(0) translate(4 255.2)">
<title>oneDegreeRelationshipsDiagram</title>
<polygon fill="#ffffff" stroke="transparent" points="-4,4 -4,-255.2 371,-255.2 371,4 -4,4"/>
<text text-anchor="middle" x="72.4936" y="-7.3" font-family="Helvetica,sans-Serif" font-size="11.00" fill="#000000">Generated by SchemaSpy</text>
<!-- commentaire -->
<g id="node1" class="node">
<title>commentaire</title>
<g id="a_node1"><a xlink:href="../../tables/commentaire.html" xlink:title="commentaire" target="_top">
<polygon fill="#ffffff" stroke="transparent" points="149,-73.7 149,-229.7 359,-229.7 359,-73.7 149,-73.7"/>
<polygon fill="#f5f5f5" stroke="transparent" points="151,-204.7 151,-227.7 357,-227.7 357,-204.7 151,-204.7"/>
<polygon fill="none" stroke="#000000" points="151,-204.7 151,-227.7 357,-227.7 357,-204.7 151,-204.7"/>
<text text-anchor="start" x="156" y="-213.8" font-family="Helvetica,sans-Serif" font-weight="bold" font-size="11.00" fill="#000000">commentaire</text>
<text text-anchor="start" x="322.0437" y="-212.8" font-family="Helvetica,sans-Serif" font-size="11.00" fill="#000000">[table]</text>
<polygon fill="none" stroke="#000000" points="151,-182.7 151,-204.7 246,-204.7 246,-182.7 151,-182.7"/>
<image xlink:href="../../images/primaryKeys.png" width="11px" height="12px" preserveAspectRatio="xMinYMin meet" x="156" y="-199.7"/>
<text text-anchor="start" x="171" y="-189.8" font-family="Helvetica,sans-Serif" font-size="11.00" fill="#000000">id</text>
<polygon fill="none" stroke="#000000" points="246,-182.7 246,-204.7 357,-204.7 357,-182.7 246,-182.7"/>
<text text-anchor="start" x="249" y="-190.4" font-family="Helvetica,sans-Serif" font-size="11.00" fill="#000000">int[10]</text>
<polygon fill="#ffffff" stroke="transparent" points="151,-160.7 151,-182.7 246,-182.7 246,-160.7 151,-160.7"/>
<polygon fill="none" stroke="#000000" points="151,-160.7 151,-182.7 246,-182.7 246,-160.7 151,-160.7"/>
<image xlink:href="../../images/foreignKeys.png" width="11px" height="12px" preserveAspectRatio="xMinYMin meet" x="156" y="-177.7"/>
<text text-anchor="start" x="171" y="-167.8" font-family="Helvetica,sans-Serif" font-size="11.00" fill="#000000">auteur_id</text>
<polygon fill="none" stroke="#000000" points="246,-160.7 246,-182.7 357,-182.7 357,-160.7 246,-160.7"/>
<text text-anchor="start" x="249" y="-168.4" font-family="Helvetica,sans-Serif" font-size="11.00" fill="#000000">int[10]</text>
<polygon fill="#ffffff" stroke="transparent" points="151,-138.7 151,-160.7 246,-160.7 246,-138.7 151,-138.7"/>
<polygon fill="none" stroke="#000000" points="151,-138.7 151,-160.7 246,-160.7 246,-138.7 151,-138.7"/>
<image xlink:href="../../images/foreignKeys.png" width="11px" height="12px" preserveAspectRatio="xMinYMin meet" x="156" y="-155.7"/>
<text text-anchor="start" x="171" y="-145.8" font-family="Helvetica,sans-Serif" font-size="11.00" fill="#000000">article_id</text>
<polygon fill="none" stroke="#000000" points="246,-138.7 246,-160.7 357,-160.7 357,-138.7 246,-138.7"/>
<text text-anchor="start" x="249" y="-146.4" font-family="Helvetica,sans-Serif" font-size="11.00" fill="#000000">int[10]</text>
<polygon fill="none" stroke="#000000" points="151,-116.7 151,-138.7 246,-138.7 246,-116.7 151,-116.7"/>
<text text-anchor="start" x="171" y="-123.8" font-family="Helvetica,sans-Serif" font-size="11.00" fill="#000000">contenu</text>
<polygon fill="none" stroke="#000000" points="246,-116.7 246,-138.7 357,-138.7 357,-116.7 246,-116.7"/>
<text text-anchor="start" x="248.6115" y="-124.4" font-family="Helvetica,sans-Serif" font-size="11.00" fill="#000000">longtext[2147483647]</text>
<polygon fill="none" stroke="#000000" points="151,-94.7 151,-116.7 246,-116.7 246,-94.7 151,-94.7"/>
<text text-anchor="start" x="171" y="-101.8" font-family="Helvetica,sans-Serif" font-size="11.00" fill="#000000">created_at</text>
<polygon fill="none" stroke="#000000" points="246,-94.7 246,-116.7 357,-116.7 357,-94.7 246,-94.7"/>
<text text-anchor="start" x="249" y="-102.4" font-family="Helvetica,sans-Serif" font-size="11.00" fill="#000000">datetime[19]</text>
<polygon fill="#ffffff" stroke="transparent" points="151,-75.7 151,-94.7 187,-94.7 187,-75.7 151,-75.7"/>
<polygon fill="none" stroke="#000000" points="151,-75.7 151,-94.7 187,-94.7 187,-75.7 151,-75.7"/>
<text text-anchor="start" x="154" y="-81.8" font-family="Helvetica,sans-Serif" font-size="11.00" fill="#000000">&lt; 2</text>
<polygon fill="#ffffff" stroke="transparent" points="187,-75.7 187,-94.7 246,-94.7 246,-75.7 187,-75.7"/>
<polygon fill="none" stroke="#000000" points="187,-75.7 187,-94.7 246,-94.7 246,-75.7 187,-75.7"/>
<text text-anchor="start" x="204.4956" y="-81.8" font-family="Helvetica,sans-Serif" font-size="11.00" fill="#000000">91 rows</text>
<polygon fill="#ffffff" stroke="transparent" points="246,-75.7 246,-94.7 357,-94.7 357,-75.7 246,-75.7"/>
<polygon fill="none" stroke="#000000" points="246,-75.7 246,-94.7 357,-94.7 357,-75.7 246,-75.7"/>
<text text-anchor="start" x="338.4053" y="-81.8" font-family="Helvetica,sans-Serif" font-size="11.00" fill="#000000">0 &gt;</text>
<polygon fill="none" stroke="#000000" stroke-width="2" points="150,-74.7 150,-228.7 358,-228.7 358,-74.7 150,-74.7"/>
</a>
</g>
</g>
<!-- article -->
<g id="node2" class="node">
<title>article</title>
<g id="a_node2"><a xlink:href="../../tables/article.html" xlink:title="article" target="_top">
<polygon fill="#ffffff" stroke="transparent" points="8,-38.2 8,-143.2 100,-143.2 100,-38.2 8,-38.2"/>
<polygon fill="#f5f5f5" stroke="transparent" points="8,-119.7 8,-142.7 100,-142.7 100,-119.7 8,-119.7"/>
<polygon fill="none" stroke="#000000" points="8,-119.7 8,-142.7 100,-142.7 100,-119.7 8,-119.7"/>
<text text-anchor="start" x="13" y="-128.8" font-family="Helvetica,sans-Serif" font-weight="bold" font-size="11.00" fill="#000000">article</text>
<text text-anchor="start" x="65.0437" y="-127.8" font-family="Helvetica,sans-Serif" font-size="11.00" fill="#000000">[table]</text>
<polygon fill="none" stroke="#000000" points="8,-97.7 8,-119.7 100,-119.7 100,-97.7 8,-97.7"/>
<image xlink:href="../../images/primaryKeys.png" width="11px" height="12px" preserveAspectRatio="xMinYMin meet" x="13" y="-114.7"/>
<text text-anchor="start" x="29" y="-104.8" font-family="Helvetica,sans-Serif" font-size="11.00" fill="#000000">id</text>
<polygon fill="#ffffff" stroke="transparent" points="8,-75.7 8,-97.7 100,-97.7 100,-75.7 8,-75.7"/>
<polygon fill="none" stroke="#000000" points="8,-75.7 8,-97.7 100,-97.7 100,-75.7 8,-75.7"/>
<image xlink:href="../../images/foreignKeys.png" width="11px" height="12px" preserveAspectRatio="xMinYMin meet" x="13" y="-92.7"/>
<text text-anchor="start" x="29" y="-82.8" font-family="Helvetica,sans-Serif" font-size="11.00" fill="#000000">categorie_id</text>
<polygon fill="none" stroke="#000000" points="8,-56.7 8,-75.7 100,-75.7 100,-56.7 8,-56.7"/>
<text text-anchor="start" x="11" y="-62.8" font-family="Helvetica,sans-Serif" font-size="11.00" fill="#000000">...</text>
<polygon fill="#ffffff" stroke="transparent" points="8,-37.7 8,-56.7 29,-56.7 29,-37.7 8,-37.7"/>
<polygon fill="none" stroke="#000000" points="8,-37.7 8,-56.7 29,-56.7 29,-37.7 8,-37.7"/>
<text text-anchor="start" x="10.7027" y="-43.8" font-family="Helvetica,sans-Serif" font-size="11.00" fill="#000000">&lt; 1</text>
<polygon fill="#ffffff" stroke="transparent" points="29,-37.7 29,-56.7 79,-56.7 79,-37.7 29,-37.7"/>
<polygon fill="none" stroke="#000000" points="29,-37.7 29,-56.7 79,-56.7 79,-37.7 29,-37.7"/>
<text text-anchor="start" x="31.6904" y="-43.8" font-family="Helvetica,sans-Serif" font-size="11.00" fill="#000000">100 rows</text>
<polygon fill="#ffffff" stroke="transparent" points="79,-37.7 79,-56.7 100,-56.7 100,-37.7 79,-37.7"/>
<polygon fill="none" stroke="#000000" points="79,-37.7 79,-56.7 100,-56.7 100,-37.7 79,-37.7"/>
<text text-anchor="start" x="81.7027" y="-43.8" font-family="Helvetica,sans-Serif" font-size="11.00" fill="#000000">1 &gt;</text>
</a>
</g>
</g>
<!-- commentaire&#45;&gt;article -->
<g id="edge1" class="edge">
<title>commentaire:w&#45;&gt;article:e</title>
<path fill="none" stroke="#000000" d="M137.1568,-145.3123C123.3325,-134.7354 123.1756,-108.7 100,-108.7"/>
<polygon fill="#000000" stroke="#000000" points="143.3739,-147.2828 149.9123,-153.1317 147.1869,-148.4914 151,-149.7 151,-149.7 151,-149.7 147.1869,-148.4914 152.0877,-146.2683 143.3739,-147.2828 143.3739,-147.2828"/>
<ellipse fill="none" stroke="#000000" cx="140.3235" cy="-146.3159" rx="3.2" ry="3.2"/>
</g>
<!-- auteur -->
<g id="node3" class="node">
<title>auteur</title>
<g id="a_node3"><a xlink:href="../../tables/auteur.html" xlink:title="auteur" target="_top">
<polygon fill="#ffffff" stroke="transparent" points="15.5,-164.2 15.5,-247.2 92.5,-247.2 92.5,-164.2 15.5,-164.2"/>
<polygon fill="#f5f5f5" stroke="transparent" points="16,-223.7 16,-246.7 93,-246.7 93,-223.7 16,-223.7"/>
<polygon fill="none" stroke="#000000" points="16,-223.7 16,-246.7 93,-246.7 93,-223.7 16,-223.7"/>
<text text-anchor="start" x="21" y="-232.8" font-family="Helvetica,sans-Serif" font-weight="bold" font-size="11.00" fill="#000000">auteur</text>
<text text-anchor="start" x="58.0437" y="-231.8" font-family="Helvetica,sans-Serif" font-size="11.00" fill="#000000">[table]</text>
<polygon fill="none" stroke="#000000" points="16,-201.7 16,-223.7 93,-223.7 93,-201.7 16,-201.7"/>
<image xlink:href="../../images/primaryKeys.png" width="11px" height="12px" preserveAspectRatio="xMinYMin meet" x="21" y="-218.7"/>
<text text-anchor="start" x="42" y="-208.8" font-family="Helvetica,sans-Serif" font-size="11.00" fill="#000000">id</text>
<polygon fill="none" stroke="#000000" points="16,-182.7 16,-201.7 93,-201.7 93,-182.7 16,-182.7"/>
<text text-anchor="start" x="19" y="-188.8" font-family="Helvetica,sans-Serif" font-size="11.00" fill="#000000">...</text>
<polygon fill="#ffffff" stroke="transparent" points="16,-163.7 16,-182.7 28,-182.7 28,-163.7 16,-163.7"/>
<polygon fill="none" stroke="#000000" points="16,-163.7 16,-182.7 28,-182.7 28,-163.7 16,-163.7"/>
<text text-anchor="start" x="18.9431" y="-169.8" font-family="Helvetica,sans-Serif" font-size="11.00" fill="#000000"> &#160;</text>
<polygon fill="#ffffff" stroke="transparent" points="28,-163.7 28,-182.7 72,-182.7 72,-163.7 28,-163.7"/>
<polygon fill="none" stroke="#000000" points="28,-163.7 28,-182.7 72,-182.7 72,-163.7 28,-163.7"/>
<text text-anchor="start" x="30.7478" y="-169.8" font-family="Helvetica,sans-Serif" font-size="11.00" fill="#000000">20 rows</text>
<polygon fill="#ffffff" stroke="transparent" points="72,-163.7 72,-182.7 93,-182.7 93,-163.7 72,-163.7"/>
<polygon fill="none" stroke="#000000" points="72,-163.7 72,-182.7 93,-182.7 93,-163.7 72,-163.7"/>
<text text-anchor="start" x="74.7027" y="-169.8" font-family="Helvetica,sans-Serif" font-size="11.00" fill="#000000">1 &gt;</text>
</a>
</g>
</g>
<!-- commentaire&#45;&gt;auteur -->
<g id="edge2" class="edge">
<title>commentaire:w&#45;&gt;auteur:e</title>
<path fill="none" stroke="#000000" d="M136.6302,-175.4837C120.0676,-185.6336 118.6491,-212.7 93,-212.7"/>
<polygon fill="#000000" stroke="#000000" points="143.2637,-173.7371 151.9167,-175.1813 147.1318,-172.7185 151,-171.7 151,-171.7 151,-171.7 147.1318,-172.7185 150.0833,-168.2187 143.2637,-173.7371 143.2637,-173.7371"/>
<ellipse fill="none" stroke="#000000" cx="140.1692" cy="-174.5519" rx="3.2" ry="3.2"/>
</g>
</g>
</svg>
