<?xml version="1.0" encoding="UTF-8" standalone="no"?>
<!DOCTYPE svg PUBLIC "-//W3C//DTD SVG 1.1//EN"
 "http://www.w3.org/Graphics/SVG/1.1/DTD/svg11.dtd">
<!-- Generated by graphviz version 2.40.1 (20161225.0304)
 -->
<!-- Title: largeRelationshipsDiagram Pages: 1 -->
<svg width="408pt" height="419pt"
 viewBox="0.00 0.00 408.00 419.20" xmlns="http://www.w3.org/2000/svg" xmlns:xlink="http://www.w3.org/1999/xlink">
<g id="graph0" class="graph" transform="scale(1 1) rotate(0) translate(4 415.2)">
<title>largeRelationshipsDiagram</title>
<polygon fill="#ffffff" stroke="transparent" points="-4,4 -4,-415.2 404,-415.2 404,4 -4,4"/>
<text text-anchor="middle" x="72.4936" y="-7.3" font-family="Helvetica,sans-Serif" font-size="11.00" fill="#000000">Generated by SchemaSpy</text>
<!-- article -->
<g id="node1" class="node">
<title>article</title>
<g id="a_node1"><a xlink:href="../../tables/article.html" xlink:title="article" target="_top">
<polygon fill="#ffffff" stroke="transparent" points="145,-60.2 145,-256.2 237,-256.2 237,-60.2 145,-60.2"/>
<polygon fill="#f5f5f5" stroke="transparent" points="145,-233.2 145,-256.2 237,-256.2 237,-233.2 145,-233.2"/>
<polygon fill="none" stroke="#000000" points="145,-233.2 145,-256.2 237,-256.2 237,-233.2 145,-233.2"/>
<text text-anchor="start" x="150" y="-242.3" font-family="Helvetica,sans-Serif" font-weight="bold" font-size="11.00" fill="#000000">article</text>
<text text-anchor="start" x="202.0437" y="-241.3" font-family="Helvetica,sans-Serif" font-size="11.00" fill="#000000">[table]</text>
<polygon fill="none" stroke="#000000" points="145,-211.2 145,-233.2 237,-233.2 237,-211.2 145,-211.2"/>
<image xlink:href="../../images/primaryKeys.png" width="11px" height="12px" preserveAspectRatio="xMinYMin meet" x="150" y="-228.2"/>
<text text-anchor="start" x="166" y="-218.3" font-family="Helvetica,sans-Serif" font-size="11.00" fill="#000000">id</text>
<polygon fill="none" stroke="#000000" points="145,-189.2 145,-211.2 237,-211.2 237,-189.2 145,-189.2"/>
<text text-anchor="start" x="166" y="-196.3" font-family="Helvetica,sans-Serif" font-size="11.00" fill="#000000">titre</text>
<polygon fill="none" stroke="#000000" points="145,-167.2 145,-189.2 237,-189.2 237,-167.2 145,-167.2"/>
<text text-anchor="start" x="166" y="-174.3" font-family="Helvetica,sans-Serif" font-size="11.00" fill="#000000">contenu</text>
<polygon fill="none" stroke="#000000" points="145,-145.2 145,-167.2 237,-167.2 237,-145.2 145,-145.2"/>
<text text-anchor="start" x="166" y="-152.3" font-family="Helvetica,sans-Serif" font-size="11.00" fill="#000000">created_at</text>
<polygon fill="none" stroke="#000000" points="145,-123.2 145,-145.2 237,-145.2 237,-123.2 145,-123.2"/>
<text text-anchor="start" x="166" y="-130.3" font-family="Helvetica,sans-Serif" font-size="11.00" fill="#000000">slug</text>
<polygon fill="#ffffff" stroke="transparent" points="145,-101.2 145,-123.2 237,-123.2 237,-101.2 145,-101.2"/>
<polygon fill="none" stroke="#000000" points="145,-101.2 145,-123.2 237,-123.2 237,-101.2 145,-101.2"/>
<image xlink:href="../../images/foreignKeys.png" width="11px" height="12px" preserveAspectRatio="xMinYMin meet" x="150" y="-118.2"/>
<text text-anchor="start" x="166" y="-108.3" font-family="Helvetica,sans-Serif" font-size="11.00" fill="#000000">categorie_id</text>
<polygon fill="none" stroke="#000000" points="145,-79.2 145,-101.2 237,-101.2 237,-79.2 145,-79.2"/>
<text text-anchor="start" x="166" y="-86.3" font-family="Helvetica,sans-Serif" font-size="11.00" fill="#000000">est_publie</text>
<polygon fill="#ffffff" stroke="transparent" points="145,-60.2 145,-79.2 166,-79.2 166,-60.2 145,-60.2"/>
<polygon fill="none" stroke="#000000" points="145,-60.2 145,-79.2 166,-79.2 166,-60.2 145,-60.2"/>
<text text-anchor="start" x="147.7027" y="-66.3" font-family="Helvetica,sans-Serif" font-size="11.00" fill="#000000">&lt; 1</text>
<polygon fill="#ffffff" stroke="transparent" points="166,-60.2 166,-79.2 216,-79.2 216,-60.2 166,-60.2"/>
<polygon fill="none" stroke="#000000" points="166,-60.2 166,-79.2 216,-79.2 216,-60.2 166,-60.2"/>
<text text-anchor="start" x="168.6904" y="-66.3" font-family="Helvetica,sans-Serif" font-size="11.00" fill="#000000">100 rows</text>
<polygon fill="#ffffff" stroke="transparent" points="216,-60.2 216,-79.2 237,-79.2 237,-60.2 216,-60.2"/>
<polygon fill="none" stroke="#000000" points="216,-60.2 216,-79.2 237,-79.2 237,-60.2 216,-60.2"/>
<text text-anchor="start" x="218.7027" y="-66.3" font-family="Helvetica,sans-Serif" font-size="11.00" fill="#000000">1 &gt;</text>
</a>
</g>
</g>
<!-- categorie -->
<g id="node3" class="node">
<title>categorie</title>
<g id="a_node3"><a xlink:href="../../tables/categorie.html" xlink:title="categorie" target="_top">
<polygon fill="#ffffff" stroke="transparent" points="8,-38.2 8,-146.2 96,-146.2 96,-38.2 8,-38.2"/>
<polygon fill="#f5f5f5" stroke="transparent" points="8,-123.2 8,-146.2 96,-146.2 96,-123.2 8,-123.2"/>
<polygon fill="none" stroke="#000000" points="8,-123.2 8,-146.2 96,-146.2 96,-123.2 8,-123.2"/>
<text text-anchor="start" x="12.8829" y="-132.3" font-family="Helvetica,sans-Serif" font-weight="bold" font-size="11.00" fill="#000000">categorie</text>
<text text-anchor="start" x="61.5219" y="-131.3" font-family="Helvetica,sans-Serif" font-size="11.00" fill="#000000">[table]</text>
<polygon fill="none" stroke="#000000" points="8,-101.2 8,-123.2 96,-123.2 96,-101.2 8,-101.2"/>
<image xlink:href="../../images/primaryKeys.png" width="11px" height="12px" preserveAspectRatio="xMinYMin meet" x="13" y="-118.2"/>
<text text-anchor="start" x="35" y="-108.3" font-family="Helvetica,sans-Serif" font-size="11.00" fill="#000000">id</text>
<polygon fill="none" stroke="#000000" points="8,-79.2 8,-101.2 96,-101.2 96,-79.2 8,-79.2"/>
<text text-anchor="start" x="35" y="-86.3" font-family="Helvetica,sans-Serif" font-size="11.00" fill="#000000">titre</text>
<polygon fill="none" stroke="#000000" points="8,-57.2 8,-79.2 96,-79.2 96,-57.2 8,-57.2"/>
<text text-anchor="start" x="35" y="-64.3" font-family="Helvetica,sans-Serif" font-size="11.00" fill="#000000">slug</text>
<polygon fill="#ffffff" stroke="transparent" points="8,-38.2 8,-57.2 28,-57.2 28,-38.2 8,-38.2"/>
<polygon fill="none" stroke="#000000" points="8,-38.2 8,-57.2 28,-57.2 28,-38.2 8,-38.2"/>
<text text-anchor="start" x="11" y="-44.3" font-family="Helvetica,sans-Serif" font-size="11.00" fill="#000000"> &#160;</text>
<polygon fill="#ffffff" stroke="transparent" points="28,-38.2 28,-57.2 70,-57.2 70,-38.2 28,-38.2"/>
<polygon fill="none" stroke="#000000" points="28,-38.2 28,-57.2 70,-57.2 70,-38.2 28,-38.2"/>
<text text-anchor="start" x="34.6105" y="-44.3" font-family="Helvetica,sans-Serif" font-size="11.00" fill="#000000">9 rows</text>
<polygon fill="#ffffff" stroke="transparent" points="70,-38.2 70,-57.2 96,-57.2 96,-38.2 70,-38.2"/>
<polygon fill="none" stroke="#000000" points="70,-38.2 70,-57.2 96,-57.2 96,-38.2 70,-38.2"/>
<text text-anchor="start" x="77.4053" y="-44.3" font-family="Helvetica,sans-Serif" font-size="11.00" fill="#000000">1 &gt;</text>
</a>
</g>
</g>
<!-- article&#45;&gt;categorie -->
<g id="edge1" class="edge">
<title>article:w&#45;&gt;categorie:e</title>
<path fill="none" stroke="#000000" d="M130.4909,-112.2C119.1774,-112.2 111.9931,-112.2 96,-112.2"/>
<polygon fill="#000000" stroke="#000000" points="137,-112.2001 145,-115.8 141,-112.2 145,-112.2 145,-112.2 145,-112.2 141,-112.2 145,-108.6 137,-112.2001 137,-112.2001"/>
<ellipse fill="none" stroke="#000000" cx="133.8" cy="-112.2001" rx="3.2" ry="3.2"/>
</g>
<!-- auteur -->
<g id="node2" class="node">
<title>auteur</title>
<g id="a_node2"><a xlink:href="../../tables/auteur.html" xlink:title="auteur" target="_top">
<polygon fill="#ffffff" stroke="transparent" points="152.5,-277.2 152.5,-407.2 229.5,-407.2 229.5,-277.2 152.5,-277.2"/>
<polygon fill="#f5f5f5" stroke="transparent" points="153,-384.2 153,-407.2 230,-407.2 230,-384.2 153,-384.2"/>
<polygon fill="none" stroke="#000000" points="153,-384.2 153,-407.2 230,-407.2 230,-384.2 153,-384.2"/>
<text text-anchor="start" x="158" y="-393.3" font-family="Helvetica,sans-Serif" font-weight="bold" font-size="11.00" fill="#000000">auteur</text>
<text text-anchor="start" x="195.0437" y="-392.3" font-family="Helvetica,sans-Serif" font-size="11.00" fill="#000000">[table]</text>
<polygon fill="none" stroke="#000000" points="153,-362.2 153,-384.2 230,-384.2 230,-362.2 153,-362.2"/>
<image xlink:href="../../images/primaryKeys.png" width="11px" height="12px" preserveAspectRatio="xMinYMin meet" x="158" y="-379.2"/>
<text text-anchor="start" x="179" y="-369.3" font-family="Helvetica,sans-Serif" font-size="11.00" fill="#000000">id</text>
<polygon fill="none" stroke="#000000" points="153,-340.2 153,-362.2 230,-362.2 230,-340.2 153,-340.2"/>
<text text-anchor="start" x="179" y="-347.3" font-family="Helvetica,sans-Serif" font-size="11.00" fill="#000000">prenom</text>
<polygon fill="none" stroke="#000000" points="153,-318.2 153,-340.2 230,-340.2 230,-318.2 153,-318.2"/>
<text text-anchor="start" x="179" y="-325.3" font-family="Helvetica,sans-Serif" font-size="11.00" fill="#000000">nom</text>
<polygon fill="none" stroke="#000000" points="153,-296.2 153,-318.2 230,-318.2 230,-296.2 153,-296.2"/>
<text text-anchor="start" x="179" y="-303.3" font-family="Helvetica,sans-Serif" font-size="11.00" fill="#000000">pseudo</text>
<polygon fill="#ffffff" stroke="transparent" points="153,-277.2 153,-296.2 165,-296.2 165,-277.2 153,-277.2"/>
<polygon fill="none" stroke="#000000" points="153,-277.2 153,-296.2 165,-296.2 165,-277.2 153,-277.2"/>
<text text-anchor="start" x="155.9431" y="-283.3" font-family="Helvetica,sans-Serif" font-size="11.00" fill="#000000"> &#160;</text>
<polygon fill="#ffffff" stroke="transparent" points="165,-277.2 165,-296.2 209,-296.2 209,-277.2 165,-277.2"/>
<polygon fill="none" stroke="#000000" points="165,-277.2 165,-296.2 209,-296.2 209,-277.2 165,-277.2"/>
<text text-anchor="start" x="167.7478" y="-283.3" font-family="Helvetica,sans-Serif" font-size="11.00" fill="#000000">20 rows</text>
<polygon fill="#ffffff" stroke="transparent" points="209,-277.2 209,-296.2 230,-296.2 230,-277.2 209,-277.2"/>
<polygon fill="none" stroke="#000000" points="209,-277.2 209,-296.2 230,-296.2 230,-277.2 209,-277.2"/>
<text text-anchor="start" x="211.7027" y="-283.3" font-family="Helvetica,sans-Serif" font-size="11.00" fill="#000000">1 &gt;</text>
</a>
</g>
</g>
<!-- commentaire -->
<g id="node4" class="node">
<title>commentaire</title>
<g id="a_node4"><a xlink:href="../../tables/commentaire.html" xlink:title="commentaire" target="_top">
<polygon fill="#ffffff" stroke="transparent" points="286,-212.2 286,-364.2 392,-364.2 392,-212.2 286,-212.2"/>
<polygon fill="#f5f5f5" stroke="transparent" points="286,-341.2 286,-364.2 392,-364.2 392,-341.2 286,-341.2"/>
<polygon fill="none" stroke="#000000" points="286,-341.2 286,-364.2 392,-364.2 392,-341.2 286,-341.2"/>
<text text-anchor="start" x="290.721" y="-350.3" font-family="Helvetica,sans-Serif" font-weight="bold" font-size="11.00" fill="#000000">commentaire</text>
<text text-anchor="start" x="357.5219" y="-349.3" font-family="Helvetica,sans-Serif" font-size="11.00" fill="#000000">[table]</text>
<polygon fill="none" stroke="#000000" points="286,-319.2 286,-341.2 392,-341.2 392,-319.2 286,-319.2"/>
<image xlink:href="../../images/primaryKeys.png" width="11px" height="12px" preserveAspectRatio="xMinYMin meet" x="291" y="-336.2"/>
<text text-anchor="start" x="312" y="-326.3" font-family="Helvetica,sans-Serif" font-size="11.00" fill="#000000">id</text>
<polygon fill="#ffffff" stroke="transparent" points="286,-297.2 286,-319.2 392,-319.2 392,-297.2 286,-297.2"/>
<polygon fill="none" stroke="#000000" points="286,-297.2 286,-319.2 392,-319.2 392,-297.2 286,-297.2"/>
<image xlink:href="../../images/foreignKeys.png" width="11px" height="12px" preserveAspectRatio="xMinYMin meet" x="291" y="-314.2"/>
<text text-anchor="start" x="312" y="-304.3" font-family="Helvetica,sans-Serif" font-size="11.00" fill="#000000">auteur_id</text>
<polygon fill="#ffffff" stroke="transparent" points="286,-275.2 286,-297.2 392,-297.2 392,-275.2 286,-275.2"/>
<polygon fill="none" stroke="#000000" points="286,-275.2 286,-297.2 392,-297.2 392,-275.2 286,-275.2"/>
<image xlink:href="../../images/foreignKeys.png" width="11px" height="12px" preserveAspectRatio="xMinYMin meet" x="291" y="-292.2"/>
<text text-anchor="start" x="312" y="-282.3" font-family="Helvetica,sans-Serif" font-size="11.00" fill="#000000">article_id</text>
<polygon fill="none" stroke="#000000" points="286,-253.2 286,-275.2 392,-275.2 392,-253.2 286,-253.2"/>
<text text-anchor="start" x="312" y="-260.3" font-family="Helvetica,sans-Serif" font-size="11.00" fill="#000000">contenu</text>
<polygon fill="none" stroke="#000000" points="286,-231.2 286,-253.2 392,-253.2 392,-231.2 286,-231.2"/>
<text text-anchor="start" x="312" y="-238.3" font-family="Helvetica,sans-Serif" font-size="11.00" fill="#000000">created_at</text>
<polygon fill="#ffffff" stroke="transparent" points="286,-212.2 286,-231.2 321,-231.2 321,-212.2 286,-212.2"/>
<polygon fill="none" stroke="#000000" points="286,-212.2 286,-231.2 321,-231.2 321,-212.2 286,-212.2"/>
<text text-anchor="start" x="289" y="-218.3" font-family="Helvetica,sans-Serif" font-size="11.00" fill="#000000">&lt; 2</text>
<polygon fill="#ffffff" stroke="transparent" points="321,-212.2 321,-231.2 372,-231.2 372,-212.2 321,-212.2"/>
<polygon fill="none" stroke="#000000" points="321,-212.2 321,-231.2 372,-231.2 372,-212.2 321,-212.2"/>
<text text-anchor="start" x="330.4956" y="-218.3" font-family="Helvetica,sans-Serif" font-size="11.00" fill="#000000">91 rows</text>
<polygon fill="#ffffff" stroke="transparent" points="372,-212.2 372,-231.2 392,-231.2 392,-212.2 372,-212.2"/>
<polygon fill="none" stroke="#000000" points="372,-212.2 372,-231.2 392,-231.2 392,-212.2 372,-212.2"/>
<text text-anchor="start" x="382.8862" y="-218.3" font-family="Helvetica,sans-Serif" font-size="11.00" fill="#000000"> &#160;</text>
</a>
</g>
</g>
<!-- commentaire&#45;&gt;article -->
<g id="edge2" class="edge">
<title>commentaire:w&#45;&gt;article:e</title>
<path fill="none" stroke="#000000" d="M272.1165,-281.178C256.2339,-266.0906 266.6667,-222.2 237,-222.2"/>
<polygon fill="#000000" stroke="#000000" points="278.477,-283.4787 284.7754,-289.5853 282.2385,-284.8394 286,-286.2 286,-286.2 286,-286.2 282.2385,-284.8394 287.2246,-282.8147 278.477,-283.4787 278.477,-283.4787"/>
<ellipse fill="none" stroke="#000000" cx="275.4678" cy="-282.3902" rx="3.2" ry="3.2"/>
</g>
<!-- commentaire&#45;&gt;auteur -->
<g id="edge3" class="edge">
<title>commentaire:w&#45;&gt;auteur:e</title>
<path fill="none" stroke="#000000" d="M271.9572,-312.4648C252.775,-326.9256 262.1736,-373.2 230,-373.2"/>
<polygon fill="#000000" stroke="#000000" points="278.3452,-310.5248 287.0462,-311.6446 282.1726,-309.3624 286,-308.2 286,-308.2 286,-308.2 282.1726,-309.3624 284.9538,-304.7554 278.3452,-310.5248 278.3452,-310.5248"/>
<ellipse fill="none" stroke="#000000" cx="275.2833" cy="-311.4547" rx="3.2" ry="3.2"/>
</g>
</g>
</svg>
