<?xml version="1.0" encoding="UTF-8" standalone="no"?>
<!DOCTYPE svg PUBLIC "-//W3C//DTD SVG 1.1//EN"
 "http://www.w3.org/Graphics/SVG/1.1/DTD/svg11.dtd">
<!-- Generated by graphviz version 2.40.1 (20161225.0304)
 -->
<!-- Title: compactRelationshipsDiagram Pages: 1 -->
<svg width="408pt" height="259pt"
 viewBox="0.00 0.00 408.00 259.20" xmlns="http://www.w3.org/2000/svg" xmlns:xlink="http://www.w3.org/1999/xlink">
<g id="graph0" class="graph" transform="scale(1 1) rotate(0) translate(4 255.2)">
<title>compactRelationshipsDiagram</title>
<polygon fill="#ffffff" stroke="transparent" points="-4,4 -4,-255.2 404,-255.2 404,4 -4,4"/>
<text text-anchor="middle" x="72.4936" y="-7.3" font-family="Helvetica,sans-Serif" font-size="11.00" fill="#000000">Generated by SchemaSpy</text>
<!-- article -->
<g id="node1" class="node">
<title>article</title>
<g id="a_node1"><a xlink:href="../../tables/article.html" xlink:title="article" target="_top">
<polygon fill="#ffffff" stroke="transparent" points="145,-38.2 145,-143.2 237,-143.2 237,-38.2 145,-38.2"/>
<polygon fill="#f5f5f5" stroke="transparent" points="145,-119.7 145,-142.7 237,-142.7 237,-119.7 145,-119.7"/>
<polygon fill="none" stroke="#000000" points="145,-119.7 145,-142.7 237,-142.7 237,-119.7 145,-119.7"/>
<text text-anchor="start" x="150" y="-128.8" font-family="Helvetica,sans-Serif" font-weight="bold" font-size="11.00" fill="#000000">article</text>
<text text-anchor="start" x="202.0437" y="-127.8" font-family="Helvetica,sans-Serif" font-size="11.00" fill="#000000">[table]</text>
<polygon fill="none" stroke="#000000" points="145,-97.7 145,-119.7 237,-119.7 237,-97.7 145,-97.7"/>
<image xlink:href="../../images/primaryKeys.png" width="11px" height="12px" preserveAspectRatio="xMinYMin meet" x="150" y="-114.7"/>
<text text-anchor="start" x="166" y="-104.8" font-family="Helvetica,sans-Serif" font-size="11.00" fill="#000000">id</text>
<polygon fill="#ffffff" stroke="transparent" points="145,-75.7 145,-97.7 237,-97.7 237,-75.7 145,-75.7"/>
<polygon fill="none" stroke="#000000" points="145,-75.7 145,-97.7 237,-97.7 237,-75.7 145,-75.7"/>
<image xlink:href="../../images/foreignKeys.png" width="11px" height="12px" preserveAspectRatio="xMinYMin meet" x="150" y="-92.7"/>
<text text-anchor="start" x="166" y="-82.8" font-family="Helvetica,sans-Serif" font-size="11.00" fill="#000000">categorie_id</text>
<polygon fill="none" stroke="#000000" points="145,-56.7 145,-75.7 237,-75.7 237,-56.7 145,-56.7"/>
<text text-anchor="start" x="148" y="-62.8" font-family="Helvetica,sans-Serif" font-size="11.00" fill="#000000">...</text>
<polygon fill="#ffffff" stroke="transparent" points="145,-37.7 145,-56.7 166,-56.7 166,-37.7 145,-37.7"/>
<polygon fill="none" stroke="#000000" points="145,-37.7 145,-56.7 166,-56.7 166,-37.7 145,-37.7"/>
<text text-anchor="start" x="147.7027" y="-43.8" font-family="Helvetica,sans-Serif" font-size="11.00" fill="#000000">&lt; 1</text>
<polygon fill="#ffffff" stroke="transparent" points="166,-37.7 166,-56.7 216,-56.7 216,-37.7 166,-37.7"/>
<polygon fill="none" stroke="#000000" points="166,-37.7 166,-56.7 216,-56.7 216,-37.7 166,-37.7"/>
<text text-anchor="start" x="168.6904" y="-43.8" font-family="Helvetica,sans-Serif" font-size="11.00" fill="#000000">100 rows</text>
<polygon fill="#ffffff" stroke="transparent" points="216,-37.7 216,-56.7 237,-56.7 237,-37.7 216,-37.7"/>
<polygon fill="none" stroke="#000000" points="216,-37.7 216,-56.7 237,-56.7 237,-37.7 216,-37.7"/>
<text text-anchor="start" x="218.7027" y="-43.8" font-family="Helvetica,sans-Serif" font-size="11.00" fill="#000000">1 &gt;</text>
</a>
</g>
</g>
<!-- categorie -->
<g id="node3" class="node">
<title>categorie</title>
<g id="a_node3"><a xlink:href="../../tables/categorie.html" xlink:title="categorie" target="_top">
<polygon fill="#ffffff" stroke="transparent" points="8,-38.2 8,-121.2 96,-121.2 96,-38.2 8,-38.2"/>
<polygon fill="#f5f5f5" stroke="transparent" points="8,-97.7 8,-120.7 96,-120.7 96,-97.7 8,-97.7"/>
<polygon fill="none" stroke="#000000" points="8,-97.7 8,-120.7 96,-120.7 96,-97.7 8,-97.7"/>
<text text-anchor="start" x="12.8829" y="-106.8" font-family="Helvetica,sans-Serif" font-weight="bold" font-size="11.00" fill="#000000">categorie</text>
<text text-anchor="start" x="61.5219" y="-105.8" font-family="Helvetica,sans-Serif" font-size="11.00" fill="#000000">[table]</text>
<polygon fill="none" stroke="#000000" points="8,-75.7 8,-97.7 96,-97.7 96,-75.7 8,-75.7"/>
<image xlink:href="../../images/primaryKeys.png" width="11px" height="12px" preserveAspectRatio="xMinYMin meet" x="13" y="-92.7"/>
<text text-anchor="start" x="35" y="-82.8" font-family="Helvetica,sans-Serif" font-size="11.00" fill="#000000">id</text>
<polygon fill="none" stroke="#000000" points="8,-56.7 8,-75.7 96,-75.7 96,-56.7 8,-56.7"/>
<text text-anchor="start" x="11" y="-62.8" font-family="Helvetica,sans-Serif" font-size="11.00" fill="#000000">...</text>
<polygon fill="#ffffff" stroke="transparent" points="8,-37.7 8,-56.7 28,-56.7 28,-37.7 8,-37.7"/>
<polygon fill="none" stroke="#000000" points="8,-37.7 8,-56.7 28,-56.7 28,-37.7 8,-37.7"/>
<text text-anchor="start" x="11" y="-43.8" font-family="Helvetica,sans-Serif" font-size="11.00" fill="#000000"> &#160;</text>
<polygon fill="#ffffff" stroke="transparent" points="28,-37.7 28,-56.7 70,-56.7 70,-37.7 28,-37.7"/>
<polygon fill="none" stroke="#000000" points="28,-37.7 28,-56.7 70,-56.7 70,-37.7 28,-37.7"/>
<text text-anchor="start" x="34.6105" y="-43.8" font-family="Helvetica,sans-Serif" font-size="11.00" fill="#000000">9 rows</text>
<polygon fill="#ffffff" stroke="transparent" points="70,-37.7 70,-56.7 96,-56.7 96,-37.7 70,-37.7"/>
<polygon fill="none" stroke="#000000" points="70,-37.7 70,-56.7 96,-56.7 96,-37.7 70,-37.7"/>
<text text-anchor="start" x="77.4053" y="-43.8" font-family="Helvetica,sans-Serif" font-size="11.00" fill="#000000">1 &gt;</text>
</a>
</g>
</g>
<!-- article&#45;&gt;categorie -->
<g id="edge1" class="edge">
<title>article:w&#45;&gt;categorie:e</title>
<path fill="none" stroke="#000000" d="M130.4909,-86.7C119.1774,-86.7 111.9931,-86.7 96,-86.7"/>
<polygon fill="#000000" stroke="#000000" points="137,-86.7001 145,-90.3 141,-86.7 145,-86.7 145,-86.7 145,-86.7 141,-86.7 145,-83.1 137,-86.7001 137,-86.7001"/>
<ellipse fill="none" stroke="#000000" cx="133.8" cy="-86.7001" rx="3.2" ry="3.2"/>
</g>
<!-- auteur -->
<g id="node2" class="node">
<title>auteur</title>
<g id="a_node2"><a xlink:href="../../tables/auteur.html" xlink:title="auteur" target="_top">
<polygon fill="#ffffff" stroke="transparent" points="152.5,-164.2 152.5,-247.2 229.5,-247.2 229.5,-164.2 152.5,-164.2"/>
<polygon fill="#f5f5f5" stroke="transparent" points="153,-223.7 153,-246.7 230,-246.7 230,-223.7 153,-223.7"/>
<polygon fill="none" stroke="#000000" points="153,-223.7 153,-246.7 230,-246.7 230,-223.7 153,-223.7"/>
<text text-anchor="start" x="158" y="-232.8" font-family="Helvetica,sans-Serif" font-weight="bold" font-size="11.00" fill="#000000">auteur</text>
<text text-anchor="start" x="195.0437" y="-231.8" font-family="Helvetica,sans-Serif" font-size="11.00" fill="#000000">[table]</text>
<polygon fill="none" stroke="#000000" points="153,-201.7 153,-223.7 230,-223.7 230,-201.7 153,-201.7"/>
<image xlink:href="../../images/primaryKeys.png" width="11px" height="12px" preserveAspectRatio="xMinYMin meet" x="158" y="-218.7"/>
<text text-anchor="start" x="179" y="-208.8" font-family="Helvetica,sans-Serif" font-size="11.00" fill="#000000">id</text>
<polygon fill="none" stroke="#000000" points="153,-182.7 153,-201.7 230,-201.7 230,-182.7 153,-182.7"/>
<text text-anchor="start" x="156" y="-188.8" font-family="Helvetica,sans-Serif" font-size="11.00" fill="#000000">...</text>
<polygon fill="#ffffff" stroke="transparent" points="153,-163.7 153,-182.7 165,-182.7 165,-163.7 153,-163.7"/>
<polygon fill="none" stroke="#000000" points="153,-163.7 153,-182.7 165,-182.7 165,-163.7 153,-163.7"/>
<text text-anchor="start" x="155.9431" y="-169.8" font-family="Helvetica,sans-Serif" font-size="11.00" fill="#000000"> &#160;</text>
<polygon fill="#ffffff" stroke="transparent" points="165,-163.7 165,-182.7 209,-182.7 209,-163.7 165,-163.7"/>
<polygon fill="none" stroke="#000000" points="165,-163.7 165,-182.7 209,-182.7 209,-163.7 165,-163.7"/>
<text text-anchor="start" x="167.7478" y="-169.8" font-family="Helvetica,sans-Serif" font-size="11.00" fill="#000000">20 rows</text>
<polygon fill="#ffffff" stroke="transparent" points="209,-163.7 209,-182.7 230,-182.7 230,-163.7 209,-163.7"/>
<polygon fill="none" stroke="#000000" points="209,-163.7 209,-182.7 230,-182.7 230,-163.7 209,-163.7"/>
<text text-anchor="start" x="211.7027" y="-169.8" font-family="Helvetica,sans-Serif" font-size="11.00" fill="#000000">1 &gt;</text>
</a>
</g>
</g>
<!-- commentaire -->
<g id="node4" class="node">
<title>commentaire</title>
<g id="a_node4"><a xlink:href="../../tables/commentaire.html" xlink:title="commentaire" target="_top">
<polygon fill="#ffffff" stroke="transparent" points="286,-101.2 286,-228.2 392,-228.2 392,-101.2 286,-101.2"/>
<polygon fill="#f5f5f5" stroke="transparent" points="286,-204.7 286,-227.7 392,-227.7 392,-204.7 286,-204.7"/>
<polygon fill="none" stroke="#000000" points="286,-204.7 286,-227.7 392,-227.7 392,-204.7 286,-204.7"/>
<text text-anchor="start" x="290.721" y="-213.8" font-family="Helvetica,sans-Serif" font-weight="bold" font-size="11.00" fill="#000000">commentaire</text>
<text text-anchor="start" x="357.5219" y="-212.8" font-family="Helvetica,sans-Serif" font-size="11.00" fill="#000000">[table]</text>
<polygon fill="none" stroke="#000000" points="286,-182.7 286,-204.7 392,-204.7 392,-182.7 286,-182.7"/>
<image xlink:href="../../images/primaryKeys.png" width="11px" height="12px" preserveAspectRatio="xMinYMin meet" x="291" y="-199.7"/>
<text text-anchor="start" x="312" y="-189.8" font-family="Helvetica,sans-Serif" font-size="11.00" fill="#000000">id</text>
<polygon fill="#ffffff" stroke="transparent" points="286,-160.7 286,-182.7 392,-182.7 392,-160.7 286,-160.7"/>
<polygon fill="none" stroke="#000000" points="286,-160.7 286,-182.7 392,-182.7 392,-160.7 286,-160.7"/>
<image xlink:href="../../images/foreignKeys.png" width="11px" height="12px" preserveAspectRatio="xMinYMin meet" x="291" y="-177.7"/>
<text text-anchor="start" x="312" y="-167.8" font-family="Helvetica,sans-Serif" font-size="11.00" fill="#000000">auteur_id</text>
<polygon fill="#ffffff" stroke="transparent" points="286,-138.7 286,-160.7 392,-160.7 392,-138.7 286,-138.7"/>
<polygon fill="none" stroke="#000000" points="286,-138.7 286,-160.7 392,-160.7 392,-138.7 286,-138.7"/>
<image xlink:href="../../images/foreignKeys.png" width="11px" height="12px" preserveAspectRatio="xMinYMin meet" x="291" y="-155.7"/>
<text text-anchor="start" x="312" y="-145.8" font-family="Helvetica,sans-Serif" font-size="11.00" fill="#000000">article_id</text>
<polygon fill="none" stroke="#000000" points="286,-119.7 286,-138.7 392,-138.7 392,-119.7 286,-119.7"/>
<text text-anchor="start" x="289" y="-125.8" font-family="Helvetica,sans-Serif" font-size="11.00" fill="#000000">...</text>
<polygon fill="#ffffff" stroke="transparent" points="286,-100.7 286,-119.7 321,-119.7 321,-100.7 286,-100.7"/>
<polygon fill="none" stroke="#000000" points="286,-100.7 286,-119.7 321,-119.7 321,-100.7 286,-100.7"/>
<text text-anchor="start" x="289" y="-106.8" font-family="Helvetica,sans-Serif" font-size="11.00" fill="#000000">&lt; 2</text>
<polygon fill="#ffffff" stroke="transparent" points="321,-100.7 321,-119.7 372,-119.7 372,-100.7 321,-100.7"/>
<polygon fill="none" stroke="#000000" points="321,-100.7 321,-119.7 372,-119.7 372,-100.7 321,-100.7"/>
<text text-anchor="start" x="330.4956" y="-106.8" font-family="Helvetica,sans-Serif" font-size="11.00" fill="#000000">91 rows</text>
<polygon fill="#ffffff" stroke="transparent" points="372,-100.7 372,-119.7 392,-119.7 392,-100.7 372,-100.7"/>
<polygon fill="none" stroke="#000000" points="372,-100.7 372,-119.7 392,-119.7 392,-100.7 372,-100.7"/>
<text text-anchor="start" x="382.8862" y="-106.8" font-family="Helvetica,sans-Serif" font-size="11.00" fill="#000000"> &#160;</text>
</a>
</g>
</g>
<!-- commentaire&#45;&gt;article -->
<g id="edge2" class="edge">
<title>commentaire:w&#45;&gt;article:e</title>
<path fill="none" stroke="#000000" d="M272.1819,-144.9968C259.2811,-134.2274 259.4061,-108.7 237,-108.7"/>
<polygon fill="#000000" stroke="#000000" points="278.4267,-147.1222 284.84,-153.108 282.2133,-148.4111 286,-149.7 286,-149.7 286,-149.7 282.2133,-148.4111 287.16,-146.292 278.4267,-147.1222 278.4267,-147.1222"/>
<ellipse fill="none" stroke="#000000" cx="275.3973" cy="-146.0911" rx="3.2" ry="3.2"/>
</g>
<!-- commentaire&#45;&gt;auteur -->
<g id="edge3" class="edge">
<title>commentaire:w&#45;&gt;auteur:e</title>
<path fill="none" stroke="#000000" d="M272.0209,-175.4837C256.0038,-185.6336 255.0628,-212.7 230,-212.7"/>
<polygon fill="#000000" stroke="#000000" points="278.2779,-173.7902 286.9406,-175.175 282.1389,-172.7451 286,-171.7 286,-171.7 286,-171.7 282.1389,-172.7451 285.0594,-168.225 278.2779,-173.7902 278.2779,-173.7902"/>
<ellipse fill="none" stroke="#000000" cx="275.189" cy="-174.6262" rx="3.2" ry="3.2"/>
</g>
</g>
</svg>
